<?xml version="1.0" encoding="UTF-8"?>
<svg width="53px" height="53px" viewBox="0 0 53 53" version="1.1" xmlns="http://www.w3.org/2000/svg" xmlns:xlink="http://www.w3.org/1999/xlink">
    <!-- Generator: Sketch 54.1 (76490) - https://sketchapp.com -->
    <title>Hassle4</title>
    <desc>Created with Sketch.</desc>
    <g id="Page-2" stroke="none" stroke-width="1" fill="none" fill-rule="evenodd">
        <g id="Homepage_l" transform="translate(-502.000000, -1904.000000)" fill="#F09C29">
            <g id="Group-25" transform="translate(384.000000, 1904.000000)">
                <g id="Hassle4" transform="translate(118.000000, 0.000000)">
                    <path d="M43.4724706,41.3495278 C45.3655059,41.8488338 46.7647059,43.5964046 46.7647059,45.5936284 L46.7647059,52.1678234 C46.7647059,52.6671294 46.4354824,53 45.9416471,53 L6.43482353,53 C5.94098824,53 5.61176471,52.6671294 5.61176471,52.1678234 L5.61176471,45.6768461 C5.61176471,43.5964046 7.01096471,41.8488338 8.904,41.3495278 L17.7107294,39.1858687 C17.9576471,38.3536921 18.6160941,37.4382979 19.6860706,37.0222096 L19.6860706,34.1928092 C17.6284235,32.528456 16.2292235,30.1151439 15.7353882,27.4521789 L14.6654118,27.4521789 C13.7600471,27.4521789 13.0192941,26.7032199 13.0192941,25.7878257 L13.0192941,21.8765957 C13.0192941,20.9612015 13.7600471,20.2122426 14.6654118,20.2122426 L15.6530824,20.2122426 C15.9,14.5534418 20.5914353,9.97647059 26.2705412,9.97647059 C31.9496471,9.97647059 36.5587765,14.5534418 36.888,20.2122426 L37.7933647,20.2122426 C38.6987294,20.2122426 39.4394824,20.9612015 39.4394824,21.8765957 C39.4394824,24.4563432 39.4394824,28.3675731 39.4394824,30.3647969 C39.4394824,31.7794971 38.2872,32.9445443 36.888,32.9445443 L34.0896,32.9445443 C33.6780706,33.3606326 33.2665412,33.7767209 32.7727059,34.1928092 L32.7727059,37.0222096 C33.8426824,37.3550802 34.4188235,38.3536921 34.7480471,39.1858687 L43.4724706,41.3495278 Z M33.1842353,39.6851747 C33.0196235,39.2690864 32.6904,38.6865627 32.1142588,38.5201274 L27.6697412,42.0152691 C28.1635765,42.4313574 28.7397176,43.013881 29.0689412,43.7628399 L33.1842353,39.6851747 Z M26.1882353,41.0998748 L31.2088941,37.2718626 L31.2088941,35.2746388 L28.4104941,36.8557743 C27.7520471,37.2718626 27.0112941,37.4382979 26.2705412,37.4382979 C25.5297882,37.4382979 24.7890353,37.2718626 24.1305882,36.8557743 L21.3321882,35.2746388 L21.3321882,37.2718626 L26.1882353,41.0998748 Z M37.7933647,30.3647969 L37.7110588,30.3647969 L37.7110588,27.4521789 L36.6410824,27.4521789 C36.3941647,28.8668791 35.9003294,30.1151439 35.2418824,31.2801911 L36.888,31.2801911 C37.3818353,31.2801911 37.7933647,30.8641029 37.7933647,30.3647969 Z M37.7933647,25.7878257 L37.7933647,21.8765957 L36.888,21.8765957 L36.888,25.5381727 L36.888,25.7878257 L37.7933647,25.7878257 Z M26.1882353,11.6408238 C21.1675765,11.6408238 17.1345882,15.8017067 17.2168941,20.7115485 C17.2168941,20.6283309 17.2168941,21.0444192 17.2168941,21.1276368 C24.6244235,22.542337 28.9043294,17.7989305 28.9866353,17.7157128 C29.1512471,17.5492775 29.4804706,17.3828422 29.7273882,17.4660598 C30.0566118,17.5492775 30.3035294,17.7157128 30.3858353,17.9653658 C31.2088941,20.1290249 33.9249882,20.2954602 35.2418824,20.2122426 C34.9126588,15.468836 30.9619765,11.6408238 26.1882353,11.6408238 Z M15.4884706,25.7878257 C15.4884706,25.8710433 15.4884706,21.9598134 15.4884706,21.8765957 L14.6654118,21.8765957 L14.6654118,25.7878257 L15.4884706,25.7878257 Z M17.1345882,25.5381727 C17.1345882,32.6116737 23.7190588,34.4424622 24.8713412,35.4410741 C25.6120941,35.94038 26.5997647,35.94038 27.4228235,35.4410741 C30.3858353,33.6935032 30.7973647,33.6102856 31.6204235,32.9445443 L28.0812706,32.9445443 L28.0812706,33.3606326 C28.0812706,33.8599386 27.7520471,34.1928092 27.2582118,34.1928092 L25.6944,34.1928092 C24.5421176,34.1928092 23.6367529,33.277415 23.6367529,32.1123677 C23.6367529,30.9473205 24.5421176,30.0319263 25.6944,30.0319263 L27.2582118,30.0319263 C27.7520471,30.0319263 28.0812706,30.3647969 28.0812706,30.8641029 L28.0812706,31.2801911 L33.2665412,31.2801911 C34.5011294,29.615838 35.2418824,27.6186142 35.2418824,25.5381727 L35.2418824,21.9598134 C33.7603765,22.0430311 30.9619765,21.7933781 29.3981647,19.7129366 C27.9166588,20.9612015 24.7067294,23.2080783 19.9329882,23.2080783 C19.0276235,23.2080783 18.1222588,23.1248606 17.1345882,22.9584253 L17.1345882,25.5381727 Z M26.4351529,32.4452384 L26.4351529,31.6130618 L25.6944,31.6130618 C25.4474824,31.6130618 25.2828706,31.7794971 25.2828706,32.0291501 C25.2828706,32.278803 25.4474824,32.4452384 25.6944,32.4452384 L26.4351529,32.4452384 Z M20.2622118,38.5201274 C19.6860706,38.6865627 19.3568471,39.2690864 19.1922353,39.6851747 L23.3075294,43.7628399 C23.6367529,43.013881 24.2128941,42.4313574 24.7067294,42.0152691 L20.2622118,38.5201274 Z M7.25788235,45.5936284 L7.25788235,51.3356468 L25.2828706,51.3356468 L25.2828706,43.7628399 C25.0359529,44.0124929 24.7067294,44.4285812 24.6244235,44.9278871 C24.5421176,45.3439754 24.2128941,45.6768461 23.8013647,45.8432814 C23.3898353,45.926499 22.9783059,45.8432814 22.6490824,45.5104107 L17.9576471,40.8502219 L9.31552941,42.9306633 C8.08094118,43.263534 7.25788235,44.3453635 7.25788235,45.5936284 Z M45.1185882,51.3356468 L45.0362824,51.3356468 L45.0362824,45.5104107 C45.0362824,44.2621459 44.2132235,43.1803163 42.9786353,42.8474457 L34.3365176,40.7670042 L29.6450824,45.4271931 C29.3981647,45.7600637 28.9043294,45.926499 28.4928,45.7600637 C28.0812706,45.5936284 27.7520471,45.2607578 27.6697412,44.8446695 C27.5874353,44.3453635 27.3405176,44.0124929 27.0112941,43.6796223 L27.0112941,51.3356468 L45.1185882,51.3356468 Z M52.7536674,11.4955217 C53.0821109,11.8239651 53.0821109,12.3166304 52.7536674,12.6450738 C52.8357783,12.562963 45.7742435,19.6244977 45.6921327,19.7066086 C45.2815783,20.035052 44.871024,20.035052 44.5425805,19.7066086 C37.8916001,13.0556282 39.9443718,15.1083999 33.2933914,8.45741951 C32.964948,8.04686517 32.964948,7.63631082 33.2933914,7.30786734 C33.2112806,7.38997821 40.1907044,0.410554345 40.3549262,0.246332607 C40.6833696,-0.082110869 41.1760349,-0.082110869 41.5044783,0.246332607 L52.7536674,11.4955217 Z M40.5191479,6.897313 L40.2728153,2.62754781 L35.9209392,6.97942387 L40.5191479,6.897313 Z M40.6012588,8.53953038 L35.8388284,8.62164125 L44.2962479,17.0790608 L44.3783588,12.3166304 L41.5044783,12.1524086 C41.093924,12.1524086 40.7654805,11.8239651 40.7654805,11.4134108 L40.6012588,8.53953038 Z M46.102687,12.4808521 L45.9384653,17.0790608 L50.2903413,12.7271847 L46.102687,12.4808521 Z M50.0440087,11.0849673 L41.9150327,2.95599129 L42.4076979,10.5923021 L50.0440087,11.0849673 Z M0.819663076,12.185676 C0.409831538,12.185676 -2.06057393e-13,11.7711972 -2.06057393e-13,11.3567184 L-2.06057393e-13,0.828957548 C-2.06057393e-13,0.331583019 0.409831538,2.13162821e-14 0.819663076,2.13162821e-14 L16.6391605,2.13162821e-14 C17.1309583,2.13162821e-14 17.4588235,0.331583019 17.4588235,0.828957548 L17.4588235,11.4396142 C17.4588235,11.9369887 17.1309583,12.2685717 16.6391605,12.2685717 L14.5080365,12.2685717 L13.7703397,14.4238613 C13.6064071,14.9212359 12.8687103,15.1699231 12.4588788,14.7554444 L9.590058,12.185676 L0.819663076,12.185676 Z M1.63932615,1.6579151 L1.63932615,10.6106566 L9.91792323,10.6106566 C10.1638221,10.6106566 10.3277548,10.6106566 10.4916874,10.7764481 L12.7047777,12.6830505 L13.1965755,11.1080311 C13.2785418,10.7764481 13.6064071,10.5277609 13.9342723,10.5277609 L15.9014637,10.5277609 L15.9014637,1.6579151 L1.63932615,1.6579151 Z M3.95229273,5.61176471 C3.53496989,5.61176471 3.11764706,5.23764706 3.11764706,4.67647059 C3.11764706,4.11529412 3.45150533,3.74117647 3.95229273,3.74117647 L12.8830014,3.74117647 C13.3837888,3.74117647 13.7176471,4.11529412 13.7176471,4.67647059 C13.7176471,5.23764706 13.3837888,5.61176471 12.8830014,5.61176471 L3.95229273,5.61176471 Z M13.7176471,7.17058824 C13.7176471,7.73176471 13.3003242,8.10588235 12.8830014,8.10588235 L3.95229273,8.10588235 C3.45150533,8.10588235 3.11764706,7.73176471 3.11764706,7.17058824 C3.11764706,6.60941176 3.45150533,6.23529412 3.95229273,6.23529412 L12.8830014,6.23529412 C13.3837888,6.23529412 13.7176471,6.60941176 13.7176471,7.17058824 Z M22.0313725,26.1882353 C21.532549,26.1882353 21.2,25.8141176 21.2,25.2529412 C21.2,24.6917647 21.532549,24.3176471 22.0313725,24.3176471 L22.8627451,24.3176471 C23.3615686,24.3176471 23.6941176,24.6917647 23.6941176,25.2529412 C23.6941176,25.8141176 23.3615686,26.1882353 22.8627451,26.1882353 L22.0313725,26.1882353 Z M30.1372549,26.1882353 C29.6384314,26.1882353 29.3058824,25.8141176 29.3058824,25.2529412 C29.3058824,24.6917647 29.6384314,24.3176471 30.1372549,24.3176471 L30.9686275,24.3176471 C31.467451,24.3176471 31.8,24.6917647 31.8,25.2529412 C31.8,25.8141176 31.467451,26.1882353 30.9686275,26.1882353 L30.1372549,26.1882353 Z M7.98108745,37.2441758 C5.3338695,36.1548477 3.00752646,32.2165078 1.72402684,28.7809347 C0.360308507,25.5129505 -0.602316202,20.9042548 0.440527233,18.2228319 C1.08227704,16.7145315 3.16796391,16.2955592 4.37124479,16.2117647 C4.85255715,16.2117647 5.3338695,16.4631481 5.49430696,16.9659149 L6.85802529,20.401488 C7.09868147,21.0718438 6.77780657,21.7421995 6.21627549,21.9935829 C5.97561931,22.0773774 5.89540058,22.1611718 5.89540058,22.1611718 C5.57452568,22.9991165 5.81518186,24.8425947 6.53715039,26.686073 C7.25911892,28.5295513 8.30196236,30.0378517 9.18436834,30.3730295 C9.18436834,30.3730295 9.26458707,30.3730295 9.50524324,30.2892351 C10.146993,30.0378517 10.7887429,30.3730295 11.029399,30.9595908 L12.3931174,34.3951639 C12.5535548,34.8141362 12.4733361,35.4006975 12.0722425,35.7358754 C11.3502739,36.4062311 9.9865556,37.4117647 8.78327471,37.4117647 C8.54261853,37.4117647 8.22174363,37.3279702 7.98108745,37.2441758 Z M1.8844643,18.8931876 C1.16249576,20.7366659 1.64380812,24.4236224 3.16796391,28.2781679 C4.6921197,32.0489189 6.77780657,34.9817252 8.54261853,35.7358754 C8.94371216,35.9034643 9.82611815,35.484492 10.7085241,34.7303418 L9.6656807,32.0489189 C9.26458707,32.1327133 8.94371216,32.1327133 8.62283726,32.0489189 C6.69758784,31.2947687 5.3338695,28.3619623 5.0129946,27.4402232 C4.05036989,25.0101837 3.88993244,22.8315276 4.45146352,21.4908161 C4.53168225,21.1556382 4.85255715,20.9042548 5.17343205,20.6528714 L4.13058862,17.9714485 C2.92730773,18.1390374 2.04490175,18.4742153 1.8844643,18.8931876 Z" id="Combined-Shape"></path>
                </g>
            </g>
        </g>
    </g>
</svg>