<?xml version="1.0" encoding="UTF-8"?>
<svg width="62px" height="46px" viewBox="0 0 62 46" version="1.1" xmlns="http://www.w3.org/2000/svg" xmlns:xlink="http://www.w3.org/1999/xlink">
    <!-- Generator: Sketch 54.1 (76490) - https://sketchapp.com -->
    <title>Hassle1</title>
    <desc>Created with Sketch.</desc>
    <g id="Page-2" stroke="none" stroke-width="1" fill="none" fill-rule="evenodd">
        <g id="Homepage_l" transform="translate(-321.000000, -1606.000000)" fill="#905BB4" fill-rule="nonzero">
            <g id="Group-9" transform="translate(208.000000, 1606.000000)">
                <g id="Hassle1" transform="translate(113.000000, 0.000000)">
                    <path d="M49,20 C47.897,20 47,20.897 47,22 C47,23.103 47.897,24 49,24 C51.206,24 53,25.794 53,28 C53,29.858 51.72,31.411 50,31.858 L50,34 L48,34 L48,31.858 C46.28,31.411 45,29.858 45,28 L47,28 C47,29.103 47.897,30 49,30 C50.103,30 51,29.103 51,28 C51,26.897 50.103,26 49,26 C46.794,26 45,24.206 45,22 C45,20.142 46.28,18.589 48,18.142 L48,16 L50,16 L50,18.142 C51.72,18.589 53,20.142 53,22 L51,22 C51,20.897 50.103,20 49,20 Z M37.293,38.707 L33,34.414 L33,40 L38,40 L38,42 L7,42 L7,19 L9,19 L9,40 L13,40 L13,26.205 L10.081,19.394 L11.919,18.606 L14.659,25 L26.414,25 L38.707,37.293 L37.293,38.707 Z M25,40 L25,27 L21,27 L21,40 L25,40 Z M15,27 L15,40 L19,40 L19,27 L15,27 Z M31,40 L31,32.414 L27,28.414 L27,40 L31,40 Z M7,10 L31,10 L31,12 L7,12 L7,10 Z M7,14 L31,14 L31,16 L7,16 L7,14 Z M62,25 C62,30.004 59.154,34.349 55,36.521 L55,46 L30,46 L28,46 L3,46 L3,8 C1.346,8 0,6.654 0,5 L0,3 C0,1.346 1.346,3.55271368e-15 3,3.55271368e-15 L55,3.55271368e-15 C56.654,3.55271368e-15 58,1.346 58,3 L58,5 C58,6.654 56.654,8 55,8 L55,13.479 C59.154,15.651 62,19.996 62,25 Z M2,5 C2,5.551 2.449,6 3,6 L55,6 C55.551,6 56,5.551 56,5 L56,3 C56,2.449 55.551,2 55,2 L3,2 C2.449,2 2,2.449 2,3 L2,5 Z M53,44 L53,37.364 C51.739,37.773 50.396,38 49,38 C41.832,38 36,32.168 36,25 C36,17.832 41.832,12 49,12 C50.396,12 51.739,12.227 53,12.636 L53,8 L5,8 L5,44 L53,44 Z M49,36 C55.065,36 60,31.065 60,25 C60,18.935 55.065,14 49,14 C42.935,14 38,18.935 38,25 C38,31.065 42.935,36 49,36 Z" id="Combined-Shape"></path>
                </g>
            </g>
        </g>
    </g>
</svg>