<?xml version="1.0" encoding="UTF-8"?>
<svg width="60px" height="60px" viewBox="0 0 60 60" version="1.1" xmlns="http://www.w3.org/2000/svg" xmlns:xlink="http://www.w3.org/1999/xlink">
    <!-- Generator: Sketch 54.1 (76490) - https://sketchapp.com -->
    <title>Hassle5</title>
    <desc>Created with Sketch.</desc>
    <g id="Page-2" stroke="none" stroke-width="1" fill="none" fill-rule="evenodd">
        <g id="Homepage_l" transform="translate(-883.000000, -1904.000000)" fill="#C97D36" fill-rule="nonzero">
            <g id="Group-26" transform="translate(769.000000, 1904.000000)">
                <g id="Hassle5" transform="translate(114.000000, 0.000000)">
                    <path d="M59.7164516,21.573871 C60.0942406,21.951774 60.0942406,22.564355 59.7164516,22.9422581 L51.9745161,30.6841935 C51.596613,31.0619825 50.9840321,31.0619825 50.606129,30.6841935 L48.3870968,28.4651613 L48.3870968,51.2903226 L48.3783871,51.2903226 C48.3816087,51.5458992 48.282675,51.7921882 48.1035484,51.9745161 L40.3616129,59.7164516 C40.1801683,59.897951 39.9340595,59.9999452 39.6774194,60 L4.83870968,60 C2.75160456,60.0060168 0.897314383,58.6692095 0.243458579,56.6871609 C-0.410397224,54.7051124 0.284479837,52.5273632 1.96548387,51.2903226 C0.730048735,50.3876241 -0.000300138422,48.9494413 -0.000300138422,47.4193548 C-0.000300138422,45.8892684 0.730048735,44.4510855 1.96548387,43.5483871 C0.284479837,42.3113465 -0.410397224,40.1335973 0.243458579,38.1515487 C0.897314383,36.1695002 2.75160456,34.8326929 4.83870968,34.8387097 L11.6129032,34.8387097 L11.6129032,28.4651613 L9.39387097,30.6841935 C9.01596789,31.0619825 8.40338695,31.0619825 8.02548387,30.6841935 L0.283548387,22.9422581 C-0.0942405855,22.564355 -0.0942405855,21.951774 0.283548387,21.573871 L9.96096774,11.8964516 C10.100196,11.757571 10.278431,11.6644027 10.4719355,11.6293548 L21.1170968,9.69387097 C21.399492,9.6388799 21.6915615,9.7154591 21.9106452,9.90193548 C22.1309311,10.0859038 22.2581963,10.3581592 22.2580645,10.6451613 C22.2608788,10.9526768 22.2883866,11.2594695 22.3403226,11.5625806 L29.0322581,9.88935484 L29.0322581,8.70967742 C29.0322581,8.17520831 29.4655309,7.74193548 30,7.74193548 C31.6034073,7.74193548 32.9032258,6.44211702 32.9032258,4.83870968 C32.9032258,3.23530234 31.6034073,1.93548387 30,1.93548387 C28.3965927,1.93548387 27.0967742,3.23530234 27.0967742,4.83870968 L25.1612903,4.83870968 C25.16181,2.29245821 27.1355883,0.18226728 29.6761297,0.011838609 C32.2166712,-0.158590062 34.4546143,1.66906343 34.7952223,4.19243082 C35.1358303,6.71579822 33.4625487,9.0713948 30.9677419,9.58064516 L30.9677419,9.89032258 L37.6596774,11.5625806 C37.7116134,11.2594695 37.7391212,10.9526768 37.7419355,10.6451613 C37.742179,10.3583272 37.8696516,10.0863799 38.0899578,9.90269801 C38.3102639,9.71901612 38.6007017,9.64252755 38.8829032,9.69387097 L49.5280645,11.6293548 C49.721569,11.6644027 49.899804,11.757571 50.0390323,11.8964516 L59.7164516,21.573871 Z M30,11.6419355 L22.9625806,13.4012903 C24.4211816,15.887501 27.1187007,17.3813004 30,17.2983871 C32.8812993,17.3813004 35.5788184,15.887501 37.0374194,13.4012903 L30,11.6419355 Z M1.93548387,39.6774194 C1.93548387,41.2808267 3.23530234,42.5806452 4.83870968,42.5806452 L26.1290323,42.5806452 C27.7324396,42.5806452 29.0322581,41.2808267 29.0322581,39.6774194 C29.0322581,38.074012 27.7324396,36.7741935 26.1290323,36.7741935 L4.83870968,36.7741935 C3.23530234,36.7741935 1.93548387,38.074012 1.93548387,39.6774194 Z M1.93548387,47.4193548 C1.93548387,49.0227622 3.23530234,50.3225806 4.83870968,50.3225806 L26.1290323,50.3225806 C27.7324396,50.3225806 29.0322581,49.0227622 29.0322581,47.4193548 C29.0322581,45.8159475 27.7324396,44.516129 26.1290323,44.516129 L4.83870968,44.516129 C3.23530234,44.516129 1.93548387,45.8159475 1.93548387,47.4193548 Z M24.1935484,58.0645161 L26.1290323,58.0645161 C27.7324396,58.0645161 29.0322581,56.7646977 29.0322581,55.1612903 C29.0322581,53.557883 27.7324396,52.2580645 26.1290323,52.2580645 L4.83870968,52.2580645 C3.23530234,52.2580645 1.93548387,53.557883 1.93548387,55.1612903 C1.93548387,56.7646977 3.23530234,58.0645161 4.83870968,58.0645161 L24.1935484,58.0645161 Z M40.6451613,56.696129 L45.0832258,52.2580645 L40.6451613,52.2580645 L40.6451613,56.696129 Z M51.2903226,28.6316129 L57.663871,22.2580645 L48.8806452,13.4787097 L39.5903226,11.79 C38.9574194,15.986129 34.8967742,19.233871 29.9980645,19.233871 C25.0993548,19.233871 21.0387097,15.986129 20.4058065,11.79 L11.1154839,13.4787097 L2.33612903,22.2580645 L8.70967742,28.6316129 L14.7996774,22.5416129 L16.1680645,23.91 L13.5483871,26.5296774 L13.5483871,34.8387097 L26.1290323,34.8387097 C28.2170309,34.8305863 30.0732556,36.1666615 30.7283868,38.1492375 C31.383518,40.1318134 30.6888333,42.3108224 29.0070968,43.5483871 C30.2425319,44.4510855 30.9728808,45.8892684 30.9728808,47.4193548 C30.9728808,48.9494413 30.2425319,50.3876241 29.0070968,51.2903226 C30.0487995,52.0492321 30.7393088,53.1971679 30.9215772,54.4730466 C31.1038456,55.7489253 30.7623787,57.0442862 29.9748387,58.0645161 L38.7096774,58.0645161 L38.7096774,51.2903226 C38.7096774,50.7558535 39.1429502,50.3225806 39.6774194,50.3225806 L46.4516129,50.3225806 L46.4516129,26.5296774 L43.8319355,23.91 L45.2003226,22.5416129 L51.2903226,28.6316129 Z M3.87096774,38.7096774 L27.0967742,38.7096774 L27.0967742,40.6451613 L3.87096774,40.6451613 L3.87096774,38.7096774 Z M3.87096774,46.4516129 L26.1290323,46.4516129 L26.1290323,48.3870968 L3.87096774,48.3870968 L3.87096774,46.4516129 Z M3.87096774,54.1935484 L26.1290323,54.1935484 L26.1290323,56.1290323 L3.87096774,56.1290323 L3.87096774,54.1935484 Z" id="Combined-Shape"></path>
                </g>
            </g>
        </g>
    </g>
</svg>