<?xml version="1.0" encoding="UTF-8"?>
<svg width="50px" height="53px" viewBox="0 0 50 53" version="1.1" xmlns="http://www.w3.org/2000/svg" xmlns:xlink="http://www.w3.org/1999/xlink">
    <!-- Generator: Sketch 54.1 (76490) - https://sketchapp.com -->
    <title>Hassle2</title>
    <desc>Created with Sketch.</desc>
    <g id="Page-2" stroke="none" stroke-width="1" fill="none" fill-rule="evenodd">
        <g id="Homepage_l" transform="translate(-701.000000, -1606.000000)" fill="#6F92EC" fill-rule="nonzero">
            <g id="Group-22" transform="translate(561.000000, 1606.000000)">
                <g id="Hassle2" transform="translate(140.000000, 0.000000)">
                    <path d="M49.2368913,46.9884065 L31.3791141,46.9883674 L31.3791141,51.435998 L33.4605155,51.435998 C33.8819687,51.435998 34.223624,51.7861118 34.223624,52.217999 C34.223624,52.6498862 33.8819687,53 33.4605155,53 L16.5394845,53 C16.1180313,53 15.776376,52.6498862 15.776376,52.217999 C15.776376,51.7861118 16.1180313,51.435998 16.5394845,51.435998 L18.6208935,51.435998 L18.6208935,46.9884065 L0.76310865,46.9884065 C0.560683686,46.988527 0.366515765,46.9061765 0.223379676,46.7594967 C0.0802435869,46.612817 -0.000117380052,46.413842 1.28689883e-07,46.2064056 L1.28689883e-07,11.1820752 C-0.000117380052,10.9746388 0.0802435869,10.7756638 0.223379676,10.628984 C0.366515765,10.4823043 0.560683686,10.3999538 0.76310865,10.4000742 L7.11240811,10.4000742 C7.53386131,10.4000742 7.87551664,10.750188 7.87551664,11.1820752 C7.87551664,11.6139624 7.53386131,11.9640762 7.11240811,11.9640762 L1.52621717,11.9640762 L1.52621717,40.4109259 L48.4737828,40.4109259 L48.4737828,11.9640762 L43.0209833,11.9640762 C42.5995301,11.9640762 42.2578747,11.6139624 42.2578747,11.1820752 C42.2578747,10.750188 42.5995301,10.4000742 43.0209833,10.4000742 L49.2368913,10.4000742 C49.4393163,10.3999538 49.6334842,10.4823043 49.7766203,10.628984 C49.9197564,10.7756638 50.0001174,10.9746388 49.9999999,11.1820752 L49.9999999,46.2064056 C50.0001174,46.413842 49.9197564,46.612817 49.7766203,46.7594967 C49.6334842,46.9061765 49.4393163,46.988527 49.2368913,46.9884065 Z M29.8528971,51.435998 L29.8528971,46.9883674 L20.1471106,46.9883674 L20.1471106,51.435998 L29.8528971,51.435998 Z M1.52621717,45.4243968 L48.4737828,45.4243968 L48.4737828,41.9748888 L1.52621717,41.9748888 L1.52621717,45.4243968 Z M40.3970575,38.8575826 C40.1946325,38.857703 40.0004646,38.7753526 39.8573285,38.6286728 C39.7141924,38.4819931 39.6338315,38.2830181 39.633949,38.0755816 L39.633949,7.64863504 L34.5969825,7.64863504 C34.3945575,7.64875546 34.2003896,7.56640498 34.0572535,7.41972523 C33.9141174,7.27304549 33.8337565,7.07407051 33.833874,6.86663406 L33.833874,2.56406466 L11.7514211,2.56406466 L11.7514211,38.0755816 C11.7514211,38.5074689 11.4097658,38.8575826 10.9883126,38.8575826 C10.5668594,38.8575826 10.2252041,38.5074689 10.2252041,38.0755816 L10.2252041,1.78200111 C10.2250866,1.57456467 10.3054475,1.37558968 10.4485836,1.22890994 C10.5917197,1.0822302 10.7858876,0.999879714 10.9883126,1.00000013 L34.5969825,1.00000013 C34.6902854,1.0013924 34.7825343,1.0204384 34.8690841,1.05617908 C34.8976585,1.0693745 34.9253668,1.08445713 34.952034,1.10133182 C34.9896788,1.118 35.0259544,1.13774402 35.0605099,1.16037289 L40.8605849,5.7034858 C41.0492966,5.85172037 41.1600116,6.08145293 41.160166,6.32511402 L41.160166,38.0755816 C41.1602835,38.2830181 41.0799226,38.4819931 40.9367865,38.6286728 C40.7936504,38.7753526 40.5994825,38.857703 40.3970575,38.8575826 Z M35.360091,6.0845627 L38.8334329,6.0845627 L35.360091,3.36421588 L35.360091,6.0845627 Z M18.6954111,11.2355328 C18.8385462,11.382144 18.9189642,11.5810319 18.9189642,11.7884192 C18.9189642,11.9958065 18.8385462,12.1946945 18.6954111,12.3413056 L15.8136309,15.2944307 C15.6705608,15.4411166 15.4764729,15.5235301 15.2740903,15.5235301 C15.0717077,15.5235301 14.8776198,15.4411166 14.7345497,15.2944307 L13.4043294,13.9312779 C13.1063494,13.6259206 13.1063494,13.1308388 13.4043295,12.8254816 C13.7023095,12.5201244 14.1854306,12.5201244 14.4834107,12.8254815 L15.2740903,13.6357597 L17.6163298,11.2355328 C17.7593999,11.0888469 17.9534879,11.0064334 18.1558704,11.0064334 C18.358253,11.0064334 18.552341,11.0888469 18.6954111,11.2355328 Z M34.0425384,12.8232059 C34.4639916,12.8232059 34.8056469,13.1733197 34.8056469,13.6052069 C34.8056469,14.0370941 34.4639916,14.3872079 34.0425384,14.3872079 L21.4072851,14.3872079 C20.9858319,14.3872079 20.6441766,14.0370941 20.6441766,13.6052069 C20.6441766,13.1733197 20.9858319,12.8232059 21.4072851,12.8232059 L34.0425384,12.8232059 Z M18.6954111,21.0036478 C18.8385532,21.1502599 18.9189756,21.3491529 18.9189756,21.556546 C18.9189756,21.763939 18.8385532,21.962832 18.6954111,22.1094441 L15.8136309,25.0625692 C15.6705608,25.2092551 15.4764729,25.2916686 15.2740903,25.2916686 C15.0717077,25.2916686 14.8776198,25.2092551 14.7345497,25.0625692 L13.4043294,23.6994163 C13.1063494,23.3940591 13.1063494,22.8989773 13.4043294,22.59362 C13.7023095,22.2882628 14.1854306,22.2882628 14.4834107,22.59362 L15.2740903,23.4038747 L17.6163298,21.0036478 C17.7593999,20.8569619 17.9534879,20.7745484 18.1558704,20.7745484 C18.358253,20.7745484 18.552341,20.8569619 18.6954111,21.0036478 Z M34.0425384,22.5913444 C34.4639916,22.5913444 34.8056469,22.9414582 34.8056469,23.3733454 C34.8056469,23.8052326 34.4639916,24.1553464 34.0425384,24.1553464 L21.4072851,24.1553464 C20.9858319,24.1553464 20.6441766,23.8052326 20.6441766,23.3733454 C20.6441766,22.9414582 20.9858319,22.5913444 21.4072851,22.5913444 L34.0425384,22.5913444 Z M17.6163298,30.7718098 C17.8090891,30.5742783 18.0900419,30.4971335 18.353356,30.569435 C18.6166701,30.6417365 18.8223418,30.8525001 18.8928966,31.1223331 C18.9634514,31.3921662 18.8881704,31.6800746 18.6954111,31.8776061 L15.8136309,34.8307311 C15.6705608,34.977417 15.4764729,35.0598305 15.2740903,35.0598305 C15.0717077,35.0598305 14.8776198,34.977417 14.7345497,34.8307311 L13.4043294,33.4675783 C13.2115702,33.2700468 13.1362891,32.9821384 13.2068439,32.7123054 C13.2773987,32.4424723 13.4830704,32.2317088 13.7463845,32.1594072 C14.0096986,32.0871057 14.2906514,32.1642505 14.4834107,32.361782 L15.2740903,33.1720367 L17.6163298,30.7718098 Z M34.0425384,32.3594907 C34.4639916,32.3594907 34.8056469,32.7096045 34.8056469,33.1414917 C34.8056469,33.5733789 34.4639916,33.9234927 34.0425384,33.9234927 L21.4072851,33.9234927 C20.9858319,33.9234927 20.6441766,33.5733789 20.6441766,33.1414917 C20.6441766,32.7096045 20.9858319,32.3594907 21.4072851,32.3594907 L34.0425384,32.3594907 Z" id="Combined-Shape"></path>
                    <path d="M49.2368913,45.9884065 L31.3791141,45.9883674 L31.3791141,50.435998 L33.4605155,50.435998 C33.8819687,50.435998 34.223624,50.7861118 34.223624,51.217999 C34.223624,51.6498862 33.8819687,52 33.4605155,52 L16.5394845,52 C16.1180313,52 15.776376,51.6498862 15.776376,51.217999 C15.776376,50.7861118 16.1180313,50.435998 16.5394845,50.435998 L18.6208935,50.435998 L18.6208935,45.9884065 L0.76310865,45.9884065 C0.560683686,45.988527 0.366515765,45.9061765 0.223379676,45.7594967 C0.0802435869,45.612817 -0.000117380052,45.413842 1.28689883e-07,45.2064056 L1.28689883e-07,10.1820752 C-0.000117380052,9.97463875 0.0802435869,9.77566377 0.223379676,9.62898403 C0.366515765,9.48230428 0.560683686,9.3999538 0.76310865,9.40007422 L7.11240811,9.40007422 C7.53386131,9.40007422 7.87551664,9.75018798 7.87551664,10.1820752 C7.87551664,10.6139624 7.53386131,10.9640762 7.11240811,10.9640762 L1.52621717,10.9640762 L1.52621717,39.4109259 L48.4737828,39.4109259 L48.4737828,10.9640762 L43.0209833,10.9640762 C42.5995301,10.9640762 42.2578747,10.6139624 42.2578747,10.1820752 C42.2578747,9.75018798 42.5995301,9.40007422 43.0209833,9.40007422 L49.2368913,9.40007422 C49.4393163,9.3999538 49.6334842,9.48230428 49.7766203,9.62898403 C49.9197564,9.77566377 50.0001174,9.97463875 49.9999999,10.1820752 L49.9999999,45.2064056 C50.0001174,45.413842 49.9197564,45.612817 49.7766203,45.7594967 C49.6334842,45.9061765 49.4393163,45.988527 49.2368913,45.9884065 Z M29.8528971,50.435998 L29.8528971,45.9883674 L20.1471106,45.9883674 L20.1471106,50.435998 L29.8528971,50.435998 Z M1.52621717,44.4243968 L48.4737828,44.4243968 L48.4737828,40.9748888 L1.52621717,40.9748888 L1.52621717,44.4243968 Z M40.3970575,37.8575826 C40.1946325,37.857703 40.0004646,37.7753526 39.8573285,37.6286728 C39.7141924,37.4819931 39.6338315,37.2830181 39.633949,37.0755816 L39.633949,6.64863504 L34.5969825,6.64863504 C34.3945575,6.64875546 34.2003896,6.56640498 34.0572535,6.41972523 C33.9141174,6.27304549 33.8337565,6.07407051 33.833874,5.86663406 L33.833874,1.56406466 L11.7514211,1.56406466 L11.7514211,37.0755816 C11.7514211,37.5074689 11.4097658,37.8575826 10.9883126,37.8575826 C10.5668594,37.8575826 10.2252041,37.5074689 10.2252041,37.0755816 L10.2252041,0.782001114 C10.2250866,0.574564666 10.3054475,0.375589684 10.4485836,0.22890994 C10.5917197,0.0822301966 10.7858876,-0.000120286058 10.9883126,1.31876072e-07 L34.5969825,1.31876072e-07 C34.6902854,0.0013924047 34.7825343,0.0204384004 34.8690841,0.0561790824 C34.8976585,0.0693744958 34.9253668,0.0844571305 34.952034,0.101331819 C34.9896788,0.118000002 35.0259544,0.137744021 35.0605099,0.160372893 L40.8605849,4.7034858 C41.0492966,4.85172037 41.1600116,5.08145293 41.160166,5.32511402 L41.160166,37.0755816 C41.1602835,37.2830181 41.0799226,37.4819931 40.9367865,37.6286728 C40.7936504,37.7753526 40.5994825,37.857703 40.3970575,37.8575826 Z M35.360091,5.0845627 L38.8334329,5.0845627 L35.360091,2.36421588 L35.360091,5.0845627 Z M18.6954111,10.2355328 C18.8385462,10.382144 18.9189642,10.5810319 18.9189642,10.7884192 C18.9189642,10.9958065 18.8385462,11.1946945 18.6954111,11.3413056 L15.8136309,14.2944307 C15.6705608,14.4411166 15.4764729,14.5235301 15.2740903,14.5235301 C15.0717077,14.5235301 14.8776198,14.4411166 14.7345497,14.2944307 L13.4043294,12.9312779 C13.1063494,12.6259206 13.1063494,12.1308388 13.4043295,11.8254816 C13.7023095,11.5201244 14.1854306,11.5201244 14.4834107,11.8254815 L15.2740903,12.6357597 L17.6163298,10.2355328 C17.7593999,10.0888469 17.9534879,10.0064334 18.1558704,10.0064334 C18.358253,10.0064334 18.552341,10.0888469 18.6954111,10.2355328 Z M34.0425384,11.8232059 C34.4639916,11.8232059 34.8056469,12.1733197 34.8056469,12.6052069 C34.8056469,13.0370941 34.4639916,13.3872079 34.0425384,13.3872079 L21.4072851,13.3872079 C20.9858319,13.3872079 20.6441766,13.0370941 20.6441766,12.6052069 C20.6441766,12.1733197 20.9858319,11.8232059 21.4072851,11.8232059 L34.0425384,11.8232059 Z M18.6954111,20.0036478 C18.8385532,20.1502599 18.9189756,20.3491529 18.9189756,20.556546 C18.9189756,20.763939 18.8385532,20.962832 18.6954111,21.1094441 L15.8136309,24.0625692 C15.6705608,24.2092551 15.4764729,24.2916686 15.2740903,24.2916686 C15.0717077,24.2916686 14.8776198,24.2092551 14.7345497,24.0625692 L13.4043294,22.6994163 C13.1063494,22.3940591 13.1063494,21.8989773 13.4043294,21.59362 C13.7023095,21.2882628 14.1854306,21.2882628 14.4834107,21.59362 L15.2740903,22.4038747 L17.6163298,20.0036478 C17.7593999,19.8569619 17.9534879,19.7745484 18.1558704,19.7745484 C18.358253,19.7745484 18.552341,19.8569619 18.6954111,20.0036478 Z M34.0425384,21.5913444 C34.4639916,21.5913444 34.8056469,21.9414582 34.8056469,22.3733454 C34.8056469,22.8052326 34.4639916,23.1553464 34.0425384,23.1553464 L21.4072851,23.1553464 C20.9858319,23.1553464 20.6441766,22.8052326 20.6441766,22.3733454 C20.6441766,21.9414582 20.9858319,21.5913444 21.4072851,21.5913444 L34.0425384,21.5913444 Z M17.6163298,29.7718098 C17.8090891,29.5742783 18.0900419,29.4971335 18.353356,29.569435 C18.6166701,29.6417365 18.8223418,29.8525001 18.8928966,30.1223331 C18.9634514,30.3921662 18.8881704,30.6800746 18.6954111,30.8776061 L15.8136309,33.8307311 C15.6705608,33.977417 15.4764729,34.0598305 15.2740903,34.0598305 C15.0717077,34.0598305 14.8776198,33.977417 14.7345497,33.8307311 L13.4043294,32.4675783 C13.2115702,32.2700468 13.1362891,31.9821384 13.2068439,31.7123054 C13.2773987,31.4424723 13.4830704,31.2317088 13.7463845,31.1594072 C14.0096986,31.0871057 14.2906514,31.1642505 14.4834107,31.361782 L15.2740903,32.1720367 L17.6163298,29.7718098 Z M34.0425384,31.3594907 C34.4639916,31.3594907 34.8056469,31.7096045 34.8056469,32.1414917 C34.8056469,32.5733789 34.4639916,32.9234927 34.0425384,32.9234927 L21.4072851,32.9234927 C20.9858319,32.9234927 20.6441766,32.5733789 20.6441766,32.1414917 C20.6441766,31.7096045 20.9858319,31.3594907 21.4072851,31.3594907 L34.0425384,31.3594907 Z" id="Combined-Shape"></path>
                </g>
            </g>
        </g>
    </g>
</svg>