<?xml version="1.0" encoding="UTF-8"?>
<svg width="50px" height="49px" viewBox="0 0 50 49" version="1.1" xmlns="http://www.w3.org/2000/svg" xmlns:xlink="http://www.w3.org/1999/xlink">
    <!-- Generator: Sketch 54.1 (76490) - https://sketchapp.com -->
    <title>Hassle3</title>
    <desc>Created with Sketch.</desc>
    <g id="Page-2" stroke="none" stroke-width="1" fill="none" fill-rule="evenodd">
        <g id="Homepage_l" transform="translate(-1062.000000, -1606.000000)" fill="#339D3D" fill-rule="nonzero">
            <g id="Group-23" transform="translate(944.000000, 1606.000000)">
                <g id="Hassle3" transform="translate(118.000000, 0.000000)">
                    <path d="M48.0505556,5.37777778 L41.2083333,12.2277778 L37.2133333,8.24 L44.0611111,1.38944444 L42.94,0.901111111 C41.5677778,0.303333333 40.1105556,0 38.6083333,0 C35.7222222,0 33.0083333,1.12388889 30.9683333,3.16444444 C27.7327778,6.39166667 26.8855556,11.2061111 28.7716667,15.3211111 L25,19.0911111 L21.2283333,15.3211111 C23.1138889,11.2066667 22.2661111,6.39277778 19.0322222,3.16611111 C16.9911111,1.12444444 14.2766667,0 11.39,0 C9.88833333,0 8.43111111,0.303333333 7.05833333,0.901111111 L6.91333333,0.963888889 L1.52333333,6.355 L1.46055556,6.5 C-0.329444444,10.6122222 0.559444444,15.3155556 3.725,18.4811111 C5.76888889,20.5255556 8.48666667,21.6516667 11.3783333,21.6516667 C12.9288889,21.6516667 14.4694444,21.3161111 15.8711111,20.6766667 L19.6388889,24.4422222 L15.8705556,28.2122222 C14.4688889,27.5733333 12.9283333,27.2372222 11.3783333,27.2372222 C8.48722222,27.2372222 5.76888889,28.3627778 3.72555556,30.4066667 C0.562777778,33.5694444 -0.326111111,38.2727778 1.46055556,42.3883333 L1.94833333,43.5111111 L8.79944444,36.6594444 L12.7877778,40.6483333 L5.93722222,47.5011111 L7.05888889,47.9888889 C8.43111111,48.5861111 9.88833333,48.8894444 11.39,48.8894444 C14.2766667,48.8894444 16.9911111,47.765 19.0316667,45.7244444 C22.2666667,42.4977778 23.1138889,37.6838889 21.2283333,33.5688889 L24.9988889,29.8 L32.0755556,36.8727778 L33.1838889,42.1133333 L42.7188889,48.2872222 L48.8477778,42.1677778 L42.6638889,32.6344444 L37.4333333,31.5166667 L30.3555556,24.4433333 L34.1283333,20.6772222 C35.53,21.3161111 37.0705556,21.6522222 38.6205556,21.6522222 C41.5127778,21.6522222 44.2305556,20.5261111 46.2744444,18.4816667 C49.4405556,15.3155556 50.3294444,10.6127778 48.5394444,6.50055556 L48.0505556,5.37777778 Z M2.92833333,7.30777778 L7.86666667,2.36833333 C8.65666667,2.03944444 9.48055556,1.83166667 10.3244444,1.73388889 L2.28555556,9.77277778 C2.38444444,8.94111111 2.59388889,8.11222222 2.92833333,7.30777778 Z M2.30833333,12.1066667 L12.6522222,1.76333333 C13.2416667,1.84444444 13.8155556,1.98166667 14.3716667,2.17222222 L2.72,13.8238889 C2.52611111,13.2655556 2.39,12.6905556 2.30833333,12.1066667 Z M3.46666667,15.4338889 L15.9866667,2.91388889 C16.425,3.17 16.8455556,3.45777778 17.2405556,3.78777778 L4.34388889,16.6844444 C4.01333333,16.2883333 3.72166667,15.8694444 3.46666667,15.4338889 Z M19.1938889,33.2466667 L19.4805556,33.7905556 C21.3683333,37.3694444 20.7155556,41.6916667 17.8544444,44.545 C16.1277778,46.2716667 13.8322222,47.2227778 11.3905556,47.2227778 C10.5438889,47.2227778 9.71388889,47.1088889 8.91166667,46.8838889 L15.145,40.6494444 L8.79944444,34.3038889 L2.56555556,40.5383333 C1.66944444,37.3661111 2.52833333,33.9622222 4.90388889,31.5861111 C6.63277778,29.8572222 8.93222222,28.905 11.3783333,28.905 C12.8666667,28.905 14.3433333,29.27 15.6494444,29.9605556 L16.1933333,30.2483333 L20.8183333,25.6216667 L23.82,28.6216667 L19.1938889,33.2466667 Z M36.6027778,33.0438889 L41.6405556,34.1205556 L46.7144444,41.9427778 L42.4938889,46.1566667 L34.6705556,41.0916667 L33.6038889,36.0444444 L26.1772222,28.6222222 L26.1788889,28.6205556 L20.82,23.2622222 L20.8172222,23.265 L16.1927778,18.6433333 L15.6494444,18.9305556 C14.3433333,19.6211111 12.8666667,19.9861111 11.3788889,19.9861111 C9.21277778,19.9861111 7.16388889,19.2361111 5.52222222,17.8644444 L18.4194444,4.96666667 C20.7916667,7.80222222 21.2366667,11.7722222 19.4805556,15.1005556 L19.1938889,15.6444444 L23.8222222,20.27 L23.8211111,20.2711111 L24.9988889,21.4461111 L36.6027778,33.0438889 Z M45.0955556,17.3033333 C43.3666667,19.0327778 41.0672222,19.9855556 38.6205556,19.9855556 C37.1327778,19.9855556 35.6561111,19.6205556 34.3505556,18.93 L33.8072222,18.6422222 L29.1794444,23.2627778 L26.1794444,20.2688889 L30.8066667,15.6433333 L30.52,15.0994444 C28.6311111,11.52 29.2844444,7.19777778 32.1461111,4.34388889 C33.8722222,2.61777778 36.1672222,1.66666667 38.6083333,1.66666667 C39.455,1.66666667 40.2855556,1.78055556 41.0883333,2.00555556 L34.855,8.24111111 L41.2094444,14.5844444 L47.435,8.35166667 C48.3333333,11.5205556 47.4738889,14.9244444 45.0955556,17.3033333 Z" id="Shape"></path>
                </g>
            </g>
        </g>
    </g>
</svg>