<?xml version="1.0" encoding="UTF-8"?>
<svg width="80px" height="80px" viewBox="0 0 80 80" version="1.1" xmlns="http://www.w3.org/2000/svg" xmlns:xlink="http://www.w3.org/1999/xlink">
    <!-- Generator: Sketch 54.1 (76490) - https://sketchapp.com -->
    <title>Inspection &amp; Prep</title>
    <desc>Created with Sketch.</desc>
    <g id="Page-2" stroke="none" stroke-width="1" fill="none" fill-rule="evenodd">
        <g id="Homepage_l" transform="translate(-1063.000000, -2527.000000)">
            <g id="Group-6" transform="translate(993.000000, 2527.000000)">
                <g id="Inspection-&amp;-Prep" transform="translate(70.000000, 0.000000)">
                    <circle id="Oval" fill="#F09C29" cx="40" cy="40" r="40"></circle>
                    <g id="noun_Building-Inspection_2131090_000000" transform="translate(19.000000, 17.000000)" fill="#FFFFFF">
                        <path d="M41.3636364,37.5420773 C41.7454545,37.5420773 42,37.8605004 42,38.1789234 L42,41.3631539 C42,41.7452616 41.7454545,42 41.3636364,42 L0.636363636,42 C0.254545455,42 0,41.7452616 0,41.3631539 L0,38.1789234 C0,37.7968158 0.254545455,37.5420773 0.636363636,37.5420773 L3.69090909,37.5420773 L3.69090909,14.2335102 L1.01818182,14.2335102 C0.7,14.2335102 0.445454545,14.0424564 0.381818182,13.787718 C0.318181818,13.5329795 0.381818182,13.2145565 0.636363636,13.0871873 L20.6181818,0.0955269143 C20.8090909,-0.0318423048 21.1272727,-0.0318423048 21.3181818,0.0955269143 L41.2363636,13.0235027 C41.4909091,13.0871873 41.6181818,13.3419257 41.6181818,13.5966641 C41.6181818,13.9787718 41.3636364,14.2335102 40.9818182,14.2335102 L38.3090909,14.2335102 L38.3090909,37.5420773 L41.3636364,37.5420773 Z M20.9363636,1.36921911 L3.11818182,12.959818 C36.2727273,12.959818 39.0090909,12.959818 38.8181818,12.959818 L20.9363636,1.36921911 Z M4.96363636,14.2335102 L4.96363636,37.6057619 L6.36363636,37.6057619 C6.49090909,37.0326005 6.74545455,36.5868082 7.06363636,36.2683851 L11.8363636,31.4920394 C12.0909091,31.237301 12.4727273,31.237301 12.7272727,31.4920394 L14.5727273,29.7088704 L7.63636364,29.7088704 C7.25454545,29.7088704 7,29.4541319 7,29.0720243 L7,20.6019712 C7,20.2198635 7.25454545,19.9651251 7.63636364,19.9651251 L15.4636364,19.9651251 C15.5272727,19.8377559 15.6545455,19.7103867 15.7818182,19.5830174 C18.9636364,16.398787 24.1181818,16.4624716 27.2363636,19.5830174 C27.8727273,20.2198635 28.3818182,20.9203942 28.7636364,21.6846096 L33.0909091,21.6846096 C33.4727273,21.6846096 33.7272727,21.939348 33.7272727,22.3214556 L33.7272727,37.5420773 L36.9727273,37.5420773 L36.9727273,14.2335102 L4.96363636,14.2335102 Z M12.6636364,37.5420773 L21.8909091,37.5420773 L21.8909091,33.4662623 C20.1727273,33.5299469 18.5818182,33.0841547 17.1818182,32.2562547 C17.1818182,32.2562547 17.1181818,32.1925701 17.1181818,32.1925701 L15.2727273,34.0394238 C15.5272727,34.2941622 15.5272727,34.6762699 15.2727273,34.9310083 L12.6636364,37.5420773 Z M7.95454545,37.1599697 C7.50909091,37.6057619 7.50909091,38.3699773 7.95454545,38.8157695 C8.4,39.2615618 9.16363636,39.2615618 9.60909091,38.8157695 C9.54545455,38.8794541 13.8727273,34.5489007 13.9363636,34.4852161 L12.2818182,32.8294162 L7.95454545,37.1599697 Z M14,28.4351782 C14,28.3714936 14,28.3714936 14,28.3714936 C13.0454545,26.0788476 13.2363636,23.404094 14.5090909,21.2388173 L8.27272727,21.2388173 L8.27272727,28.4351782 L14,28.4351782 Z M26.3454545,20.474602 C23.6727273,17.7998484 19.3454545,17.7998484 16.6727273,20.474602 C13.7454545,23.404094 14,28.3078089 17.4363636,30.8551933 C20.1090909,32.7657316 23.8636364,32.6383624 26.3454545,30.1546626 C29.0818182,27.4162244 28.9545455,23.085671 26.3454545,20.474602 Z M15.4,30.6641395 L13.6818182,32.383624 L14.3818182,33.0841547 L16.1,31.3646702 C15.8454545,31.1736164 15.5909091,30.9188779 15.4,30.6641395 Z M23.2272727,33.2115239 L23.2272727,37.5420773 L32.4545455,37.5420773 L32.4545455,22.9583017 L29.2727273,22.9583017 C30.1636364,25.8241092 29.3363636,28.944655 27.2363636,31.0462472 C26.0909091,32.1925701 24.6272727,32.8931008 23.2272727,33.2115239 Z M40.7272727,40.7263078 L40.7909091,40.7263078 L40.7909091,38.8157695 C36.5909091,38.8157695 15.7181818,38.8157695 11.4545455,38.8157695 L10.5636364,39.7073541 C9.60909091,40.6626232 8.08181818,40.6626232 7.12727273,39.7073541 C6.87272727,39.4526156 6.61818182,39.070508 6.55454545,38.8157695 C6.74545455,38.8157695 1.59090909,38.8157695 1.27272727,38.8157695 L1.27272727,40.7263078 L40.7272727,40.7263078 Z M21,10.3764706 C19.5176471,10.3764706 18.2823529,9.14117647 18.2823529,7.65882353 C18.2823529,6.17647059 19.5176471,4.94117647 21,4.94117647 C22.4823529,4.94117647 23.7176471,6.17647059 23.7176471,7.65882353 C23.7176471,9.14117647 22.4823529,10.3764706 21,10.3764706 Z M21,6.11470588 C20.1970588,6.11470588 19.5176471,6.79411765 19.5176471,7.59705882 C19.5176471,8.4 20.1970588,9.07941176 21,9.07941176 C21.8029412,9.07941176 22.4823529,8.4 22.4823529,7.59705882 C22.4823529,6.79411765 21.8029412,6.11470588 21,6.11470588 Z M30.1411765,30.1411765 C30.6970588,30.1411765 31.1294118,30.5735294 31.1294118,31.1294118 C31.1294118,31.6852941 30.6970588,32.1176471 30.1411765,32.1176471 C29.5852941,32.1176471 29.1529412,31.6852941 29.1529412,31.1294118 C29.1529412,30.5735294 29.5852941,30.1411765 30.1411765,30.1411765 Z M30.1411765,31.3764706 C30.2647059,31.3764706 30.3882353,31.2529412 30.3882353,31.1294118 C30.3882353,31.0058824 30.2647059,30.8823529 30.1411765,30.8823529 C30.0176471,30.8823529 29.8941176,31.0058824 29.8941176,31.1294118 C29.8941176,31.2529412 30.0176471,31.3764706 30.1411765,31.3764706 Z" id="Combined-Shape"></path>
                    </g>
                </g>
            </g>
        </g>
    </g>
</svg>