<?xml version="1.0" encoding="UTF-8"?>
<svg width="122px" height="32px" viewBox="0 0 122 32" version="1.1" xmlns="http://www.w3.org/2000/svg" xmlns:xlink="http://www.w3.org/1999/xlink">
    <!-- Generator: Sketch 54.1 (76490) - https://sketchapp.com -->
    <title>KeyLobby logo2</title>
    <desc>Created with Sketch.</desc>
    <g id="Page-2" stroke="none" stroke-width="1" fill="none" fill-rule="evenodd">
        <g id="Homepage_l" transform="translate(-208.000000, -4815.000000)">
            <g id="KeyLobby-logo2" transform="translate(208.000000, 4815.000000)">
                <g id="Group-2-Copy-4">
                    <g id="Group-Copy-7">
                        <path d="M44.8252217,13.4670574 L42.7786342,15.5813173 L42.7786342,18.5250178 L41.1797377,18.5250178 L41.1797377,7.14054092 L42.7786342,7.14054092 L42.7786342,13.4995844 L48.8544409,7.14054092 L50.6771829,7.14054092 L45.8964824,12.2635555 L50.9809733,18.5250178 L49.1102644,18.5250178 L44.8252217,13.4670574 Z M55.9055745,17.2564618 C56.918214,17.2564618 57.7336431,16.9095098 58.3518861,16.2155953 L59.1833123,17.2239347 C58.8102346,17.6793161 58.3385648,18.0262681 57.7682889,18.2648012 C57.198013,18.5033343 56.5611256,18.622599 55.8576076,18.622599 C54.9622211,18.622599 54.1681104,18.4355702 53.4752518,18.061507 C52.7823932,17.6874437 52.2467682,17.1643051 51.8683608,16.4920755 C51.4899534,15.8198459 51.3007526,15.0608883 51.3007526,14.2151801 C51.3007526,13.3803143 51.4846238,12.6267779 51.8523719,11.9545483 C52.2201199,11.2823187 52.726432,10.7591801 53.3713235,10.3851168 C54.016215,10.0110536 54.7437056,9.82402476 55.5538173,9.82402476 C56.3212914,9.82402476 57.0194692,10.0002113 57.6483717,10.3525898 C58.2772741,10.7049682 58.7782567,11.2010011 59.1513344,11.8407035 C59.5244121,12.4804059 59.7162778,13.2176789 59.7269371,14.0525447 L52.9955829,15.3861549 C53.2087701,15.9824876 53.5685182,16.4432833 54.074838,16.7685557 C54.5811577,17.093828 55.1913971,17.2564618 55.9055745,17.2564618 Z M55.5538173,11.1413714 C55.0208491,11.1413714 54.5438497,11.2660572 54.1228049,11.5154327 C53.70176,11.7648083 53.3739895,12.1144708 53.1394835,12.564431 C52.9049775,13.0143911 52.7877263,13.5375297 52.7877263,14.1338624 L52.7877263,14.2964978 L58.2079854,13.2556314 C58.0694137,12.6267714 57.7602968,12.1171856 57.2806255,11.7268587 C56.8009541,11.3365319 56.2253571,11.1413714 55.5538173,11.1413714 Z M69.7680072,9.90534245 L69.7680072,17.354043 C69.7680072,18.8611385 69.421583,19.9751797 68.7287244,20.6962002 C68.0358658,21.4172206 66.9965935,21.7777255 65.6108762,21.7777255 C64.8540615,21.7777255 64.1319004,21.6665924 63.4443715,21.4443229 C62.7568426,21.2220535 62.1945696,20.9049176 61.7575357,20.4929059 L62.509017,19.2894041 C62.8820948,19.6363613 63.3324461,19.9074176 63.8600846,20.102581 C64.3877231,20.2977445 64.9446664,20.3953247 65.5309314,20.3953247 C66.458296,20.3953247 67.1404851,20.1595058 67.5775189,19.6878608 C68.0145528,19.2162158 68.2330665,18.4924956 68.2330665,17.5166784 L68.2330665,16.8824004 C67.923945,17.2944121 67.5242248,17.6115479 67.0338941,17.8338174 C66.5435634,18.0560869 66.0106033,18.16722 65.4349976,18.16722 C64.3051051,18.16722 63.4150616,17.8527947 62.7648405,17.2239347 C62.1146193,16.5950748 61.7895136,15.6626412 61.7895136,14.4266061 L61.7895136,9.90534245 L63.3244543,9.90534245 L63.3244543,14.2477072 C63.3244543,15.0717306 63.5216495,15.6978706 63.916046,16.1261459 C64.3104424,16.5544212 64.8753802,16.7685557 65.6108762,16.7685557 C66.4209879,16.7685557 67.0605401,16.5191839 67.5295521,16.0204329 C67.998564,15.5216819 68.2330665,14.8169356 68.2330665,13.9061729 L68.2330665,9.90534245 L69.7680072,9.90534245 Z M72.9178333,7.14054092 L74.5167298,7.14054092 L74.5167298,17.11009 L80.5765475,17.11009 L80.5765475,18.5250178 L72.9178333,18.5250178 L72.9178333,7.14054092 Z M85.7090053,18.622599 C84.8669156,18.622599 84.1101121,18.4328596 83.4385722,18.0533752 C82.7670324,17.6738907 82.2420666,17.1507521 81.8636592,16.4839437 C81.4852518,15.8171353 81.2960509,15.0608883 81.2960509,14.2151801 C81.2960509,13.3694719 81.4852518,12.6132249 81.8636592,11.9464165 C82.2420666,11.2796081 82.7670324,10.7591801 83.4385722,10.3851168 C84.1101121,10.0110536 84.8669156,9.82402476 85.7090053,9.82402476 C86.551095,9.82402476 87.3052336,10.0110536 87.9714438,10.3851168 C88.637654,10.7591801 89.159955,11.2796081 89.5383624,11.9464165 C89.9167698,12.6132249 90.1059707,13.3694719 90.1059707,14.2151801 C90.1059707,15.0608883 89.9167698,15.8171353 89.5383624,16.4839437 C89.159955,17.1507521 88.637654,17.6738907 87.9714438,18.0533752 C87.3052336,18.4328596 86.551095,18.622599 85.7090053,18.622599 Z M85.7090053,17.2564618 C86.2526328,17.2564618 86.7402914,17.1290654 87.1719956,16.8742686 C87.6036998,16.6194719 87.9421295,16.2616777 88.1872949,15.8008751 C88.4324602,15.3400726 88.555041,14.8115128 88.555041,14.2151801 C88.555041,13.6188474 88.4324602,13.0902877 88.1872949,12.6294851 C87.9421295,12.1686826 87.6036998,11.8135989 87.1719956,11.5642234 C86.7402914,11.3148479 86.2526328,11.190162 85.7090053,11.190162 C85.1653777,11.190162 84.6777192,11.3148479 84.246015,11.5642234 C83.8143108,11.8135989 83.4732163,12.1686826 83.2227212,12.6294851 C82.9722262,13.0902877 82.8469805,13.6188474 82.8469805,14.2151801 C82.8469805,14.8115128 82.9722262,15.3400726 83.2227212,15.8008751 C83.4732163,16.2616777 83.8143108,16.6194719 84.246015,16.8742686 C84.6777192,17.1290654 85.1653777,17.2564618 85.7090053,17.2564618 Z M96.7254022,9.82402476 C97.5461731,9.82402476 98.2816582,10.008343 98.9318793,10.3769851 C99.5821005,10.7456271 100.091077,11.260634 100.458826,11.9220212 C100.826574,12.5834084 101.010445,13.3477871 101.010445,14.2151801 C101.010445,15.0825732 100.826574,15.8496624 100.458826,16.5164708 C100.091077,17.1832792 99.5821005,17.7009967 98.9318793,18.0696387 C98.2816582,18.4382808 97.5461731,18.622599 96.7254022,18.622599 C96.0964997,18.622599 95.5209028,18.4979131 94.9985939,18.2485376 C94.4762851,17.9991621 94.0445874,17.6359467 93.7034878,17.1588806 L93.7034878,18.5250178 L92.232503,18.5250178 L92.232503,6.45747231 L93.7674436,6.45747231 L93.7674436,11.2064255 C94.1085433,10.7510442 94.5349114,10.4068027 95.0465608,10.1736908 C95.5582103,9.94057895 96.1178185,9.82402476 96.7254022,9.82402476 Z M96.5974904,17.2564618 C97.141118,17.2564618 97.6287765,17.1290654 98.0604807,16.8742686 C98.492185,16.6194719 98.8332795,16.2616777 99.0837745,15.8008751 C99.3342695,15.3400726 99.4595152,14.8115128 99.4595152,14.2151801 C99.4595152,13.6188474 99.3342695,13.0902877 99.0837745,12.6294851 C98.8332795,12.1686826 98.492185,11.8135989 98.0604807,11.5642234 C97.6287765,11.3148479 97.141118,11.190162 96.5974904,11.190162 C96.0645223,11.190162 95.5795285,11.3148479 95.1424946,11.5642234 C94.7054607,11.8135989 94.3643662,12.1686826 94.1192009,12.6294851 C93.8740355,13.0902877 93.7514547,13.6188474 93.7514547,14.2151801 C93.7514547,14.8115128 93.8740355,15.3400726 94.1192009,15.8008751 C94.3643662,16.2616777 94.7054607,16.6194719 95.1424946,16.8742686 C95.5795285,17.1290654 96.0645223,17.2564618 96.5974904,17.2564618 Z M107.629876,9.82402476 C108.450647,9.82402476 109.186132,10.008343 109.836353,10.3769851 C110.486575,10.7456271 110.995552,11.260634 111.3633,11.9220212 C111.731048,12.5834084 111.914919,13.3477871 111.914919,14.2151801 C111.914919,15.0825732 111.731048,15.8496624 111.3633,16.5164708 C110.995552,17.1832792 110.486575,17.7009967 109.836353,18.0696387 C109.186132,18.4382808 108.450647,18.622599 107.629876,18.622599 C107.000974,18.622599 106.425377,18.4979131 105.903068,18.2485376 C105.380759,17.9991621 104.949062,17.6359467 104.607962,17.1588806 L104.607962,18.5250178 L103.136977,18.5250178 L103.136977,6.45747231 L104.671918,6.45747231 L104.671918,11.2064255 C105.013017,10.7510442 105.439386,10.4068027 105.951035,10.1736908 C106.462684,9.94057895 107.022293,9.82402476 107.629876,9.82402476 Z M107.501965,17.2564618 C108.045592,17.2564618 108.533251,17.1290654 108.964955,16.8742686 C109.396659,16.6194719 109.737754,16.2616777 109.988249,15.8008751 C110.238744,15.3400726 110.363989,14.8115128 110.363989,14.2151801 C110.363989,13.6188474 110.238744,13.0902877 109.988249,12.6294851 C109.737754,12.1686826 109.396659,11.8135989 108.964955,11.5642234 C108.533251,11.3148479 108.045592,11.190162 107.501965,11.190162 C106.968996,11.190162 106.484003,11.3148479 106.046969,11.5642234 C105.609935,11.8135989 105.26884,12.1686826 105.023675,12.6294851 C104.77851,13.0902877 104.655929,13.6188474 104.655929,14.2151801 C104.655929,14.8115128 104.77851,15.3400726 105.023675,15.8008751 C105.26884,16.2616777 105.609935,16.6194719 106.046969,16.8742686 C106.484003,17.1290654 106.968996,17.2564618 107.501965,17.2564618 Z M121.94,9.90534245 L121.94,17.354043 C121.94,18.8611385 121.593576,19.9751797 120.900717,20.6962002 C120.207859,21.4172206 119.168586,21.7777255 117.782869,21.7777255 C117.026054,21.7777255 116.303893,21.6665924 115.616364,21.4443229 C114.928835,21.2220535 114.366562,20.9049176 113.929529,20.4929059 L114.68101,19.2894041 C115.054088,19.6363613 115.504439,19.9074176 116.032077,20.102581 C116.559716,20.2977445 117.116659,20.3953247 117.702924,20.3953247 C118.630289,20.3953247 119.312478,20.1595058 119.749512,19.6878608 C120.186546,19.2162158 120.405059,18.4924956 120.405059,17.5166784 L120.405059,16.8824004 C120.095938,17.2944121 119.696218,17.6115479 119.205887,17.8338174 C118.715556,18.0560869 118.182596,18.16722 117.60699,18.16722 C116.477098,18.16722 115.587054,17.8527947 114.936833,17.2239347 C114.286612,16.5950748 113.961506,15.6626412 113.961506,14.4266061 L113.961506,9.90534245 L115.496447,9.90534245 L115.496447,14.2477072 C115.496447,15.0717306 115.693642,15.6978706 116.088039,16.1261459 C116.482435,16.5544212 117.047373,16.7685557 117.782869,16.7685557 C118.592981,16.7685557 119.232533,16.5191839 119.701545,16.0204329 C120.170557,15.5216819 120.405059,14.8169356 120.405059,13.9061729 L120.405059,9.90534245 L121.94,9.90534245 Z" id="KeyLobby" fill="#FFFFFF"></path>
                        <text id="New-Zealand" font-family="Helvetica" font-size="7.28" font-weight="normal" letter-spacing="1.03999986" fill="#FFFFFF">
                            <tspan x="69.2927937" y="30.75">New Zealand</tspan>
                        </text>
                        <g id="Group">
                            <path d="M5.005,-4.156675e-13 L26.9792623,-4.16555679e-13 C29.7434475,-4.17063451e-13 31.9842623,2.24081483 31.9842623,5.005 L31.9842623,26.1211364 C31.9842623,28.8853215 29.7434475,31.1261364 26.9792623,31.1261364 L5.005,31.1261364 C2.24081483,31.1261364 -6.44985096e-14,28.8853215 -6.48370246e-14,26.1211364 L-6.30606678e-14,5.005 C-6.33991829e-14,2.24081483 2.24081483,-4.16936085e-13 5.005,-4.17443857e-13 Z" id="Rectangle" fill="#009AFF"></path>
                            <g id="icon-copy-2" transform="translate(15.992131, 15.925000) rotate(-330.000000) translate(-15.992131, -15.925000) translate(5.997049, 5.971875)" fill="#FFFFFF">
                                <g id="Group-7" transform="translate(-0.000000, 0.000000)">
                                    <path d="M15.3081852,15.2318076 L13.7690728,13.367598 C13.7669864,13.3700762 13.7648975,13.3725522 13.762806,13.3750261 L12.4546999,11.7914066 C12.4565926,11.7884267 12.4584797,11.785443 12.4603612,11.7824553 L12.4546899,11.7755861 L12.472517,11.7629721 C12.7304028,11.3457494 12.8791685,10.8543863 12.8791685,10.3283946 C12.8791685,8.81565722 11.6486959,7.5893413 10.1308309,7.5893413 C8.61296595,7.5893413 7.38249329,8.81565722 7.38249329,10.3283946 C7.38249329,11.8411319 8.61296595,13.0674478 10.1308309,13.0674478 C10.1661895,13.0674478 10.2013922,13.0667824 10.2364271,13.0654633 L10.9590175,14.9877359 C10.9571784,14.9880583 10.955339,14.9883798 10.9534992,14.9887001 L11.8198262,17.2972131 C11.8220484,17.2966217 11.8242703,17.2960293 11.8264918,17.2954359 L12.5304807,19.1682236 C11.689562,19.4112864 10.8005387,19.5415737 9.88098203,19.5415737 C4.63744855,19.5415737 0.386724801,15.3052097 0.386724801,10.0793897 C0.386724801,4.8535698 4.63744855,0.617205722 9.88098203,0.617205722 C15.1245155,0.617205722 19.3752393,4.8535698 19.3752393,10.0793897 C19.3752393,12.6998526 18.3064059,15.0715193 16.5795201,16.7849967 L15.3019396,15.2383321 C15.3040228,15.2361585 15.3061046,15.2339837 15.3081852,15.2318076 Z M16.4982207,13.5911729 C17.05873,12.5443176 17.3764483,11.3488319 17.3764483,10.0793897 C17.3764483,5.95374242 14.0206137,2.60924446 9.88098203,2.60924446 C5.74135034,2.60924446 2.3855158,5.95374242 2.3855158,10.0793897 C2.3855158,14.205037 5.74135034,17.549535 9.88098203,17.549535 C9.89681916,17.549535 9.91264482,17.549486 9.92845886,17.5493883 L8.95106849,14.9122314 C6.90003876,14.3894668 5.38370229,12.5354121 5.38370229,10.3283946 C5.38370229,7.71548461 7.50906416,5.59730257 10.1308309,5.59730257 C12.7525976,5.59730257 14.8779595,7.71548461 14.8779595,10.3283946 C14.8779595,10.7575355 14.8206293,11.1733314 14.7131854,11.5685901 L16.4982207,13.5911729 Z" id="Combined-Shape"></path>
                                </g>
                            </g>
                        </g>
                    </g>
                </g>
            </g>
        </g>
    </g>
</svg>