<?xml version="1.0" encoding="UTF-8"?>
<svg width="80px" height="80px" viewBox="0 0 80 80" version="1.1" xmlns="http://www.w3.org/2000/svg" xmlns:xlink="http://www.w3.org/1999/xlink">
    <!-- Generator: Sketch 54.1 (76490) - https://sketchapp.com -->
    <title>Quote</title>
    <desc>Created with Sketch.</desc>
    <g id="Page-2" stroke="none" stroke-width="1" fill="none" fill-rule="evenodd">
        <g id="Homepage_l" transform="translate(-310.000000, -3905.000000)" fill-rule="nonzero">
            <g id="Group-5" transform="translate(216.000000, 3905.000000)">
                <g id="Quote" transform="translate(94.000000, 0.000000)">
                    <circle id="Oval" fill="#6F92EC" cx="40" cy="40" r="40"></circle>
                    <g id="noun_Quotation-Mark_782559_000000" transform="translate(17.000000, 27.000000)" fill="#FFFFFF">
                        <path d="M7.3125,0.49998 C3.27715,0.49998 0,3.777125 0,7.81248 L0,13.18748 C0,17.22281 3.27715,20.50001 7.3125,20.50001 L10.8281,20.50001 C10.3832,23.48476 9.90045,26.17651 9.03125,29.21876 C8.85645,29.81536 9.37835,30.50561 10,30.50001 C11.4109,30.50001 12.57135,29.57396 13.6719,28.37501 C14.7724,27.17606 15.8237,25.59721 16.75,23.85936 C18.6026,20.38366 20,16.38141 20,13.49998 C20,11.604145 20,9.708315 20,7.81248 C20,3.777125 16.72285,0.49998 12.6875,0.49998 L7.3125,0.49998 Z M32.3125,0.49998 C28.27715,0.49998 25,3.777125 25,7.81248 L25,13.18748 C25,17.22281 28.27715,20.50001 32.3125,20.50001 L35.8281,20.50001 C35.3832,23.48476 34.90045,26.17651 34.03125,29.21876 C33.85645,29.81536 34.37835,30.50561 35,30.50001 C36.4109,30.50001 37.57135,29.57396 38.6719,28.37501 C39.7724,27.17606 40.8237,25.59721 41.75,23.85936 C43.6026,20.38366 45,16.38141 45,13.49998 C45,11.604145 45,9.708315 45,7.81248 C45,3.777125 41.72285,0.49998 37.6875,0.49998 L32.3125,0.49998 Z M7.3125,2.49998 L12.6875,2.49998 C15.65105,2.49998 18,4.848925 18,7.81248 C18,9.708315 18,11.604145 18,13.49998 C18,15.67441 16.72215,19.66156 14.9844,22.92186 C14.1154,24.55206 13.1312,26.02016 12.2031,27.03126 C11.94095,27.31691 11.71235,27.45721 11.46875,27.65626 C12.12465,24.96751 12.58675,22.42416 12.9844,19.64061 C13.0643,19.07756 12.5687,18.50331 12,18.50001 L7.3125,18.50001 C4.34895,18.50001 2,16.15101 2,13.18748 L2,7.81248 C2,4.848925 4.34895,2.49998 7.3125,2.49998 Z M32.3125,2.49998 L37.6875,2.49998 C40.65105,2.49998 43,4.848925 43,7.81248 C43,9.708315 43,11.604145 43,13.49998 C43,15.67441 41.72215,19.66156 39.9844,22.92186 C39.1154,24.55206 38.1312,26.02016 37.2031,27.03126 C36.94095,27.31691 36.71235,27.45721 36.46875,27.65626 C37.12465,24.96751 37.58675,22.42416 37.9844,19.64061 C38.0643,19.07756 37.5687,18.50331 37,18.50001 L32.3125,18.50001 C29.34895,18.50001 27,16.15101 27,13.18748 L27,7.81248 C27,4.848925 29.34895,2.49998 32.3125,2.49998 L32.3125,2.49998 Z" id="Shape"></path>
                    </g>
                </g>
            </g>
        </g>
    </g>
</svg>