<?xml version="1.0" encoding="UTF-8"?>
<svg width="80px" height="80px" viewBox="0 0 80 80" version="1.1" xmlns="http://www.w3.org/2000/svg" xmlns:xlink="http://www.w3.org/1999/xlink">
    <!-- Generator: Sketch 54.1 (76490) - https://sketchapp.com -->
    <title>Request Report</title>
    <desc>Created with Sketch.</desc>
    <g id="Page-2" stroke="none" stroke-width="1" fill="none" fill-rule="evenodd">
        <g id="Homepage_l" transform="translate(-299.000000, -2527.000000)" fill-rule="nonzero">
            <g id="Group-19" transform="translate(236.000000, 2527.000000)">
                <g id="Group-3">
                    <g id="Group-34">
                        <g id="Request-Report" transform="translate(63.000000, 0.000000)">
                            <circle id="Oval" fill="#905BB4" cx="40" cy="40" r="40"></circle>
                            <g id="noun_reports_626759_000000" transform="translate(22.000000, 19.000000)" fill="#FFFFFF">
                                <path d="M33.5005,5.75 C34.6005,5.75 35.5005,6.65 35.5005,7.75 L35.4995,39.75 C35.4995,40.85 34.5995,41.75 33.4995,41.75 L7.9995,41.75 C6.8995,41.75 5.9995,40.85 5.9995,39.75 L5.9995,36.25 L2.4995,36.25 C1.3995,36.25 0.4995,35.35 0.4995,34.25 L0.4995,2.25 C0.4995,1.15 1.3995,0.25 2.4995,0.25 L28.0005,0.25 C29.1005,0.25 30.0005,1.15 30.0005,2.25 L30.0005,5.75 L33.5005,5.75 Z M2.4995,34.75 L5.9995,34.75 L5.9995,7.75 C5.9995,6.65 6.8995,5.75 7.9995,5.75 L28.5005,5.75 L28.5005,2.25 C28.5005,1.979 28.2715,1.75 28.0005,1.75 L2.4995,1.75 C2.2285,1.75 1.9995,1.979 1.9995,2.25 L1.9995,34.25 C1.9995,34.521 2.2285,34.75 2.4995,34.75 Z M33.9995,39.75 L34.0005,7.75 C34.0005,7.479 33.7715,7.25 33.5005,7.25 L7.9995,7.25 C7.7285,7.25 7.4995,7.479 7.4995,7.75 L7.4995,39.75 C7.4995,40.021 7.7285,40.25 7.9995,40.25 L33.4995,40.25 C33.7705,40.25 33.9995,40.021 33.9995,39.75 Z M13.5005,19 C13.0865,19 12.7505,18.664 12.7505,18.25 C12.7505,17.8355 13.0865,17.5 13.5005,17.5 L28.4995,17.5 C28.9135,17.5 29.2495,17.8355 29.2495,18.25 C29.2495,18.664 28.9135,19 28.4995,19 L13.5005,19 Z M13.5005,14 C13.0865,14 12.7505,13.664 12.7505,13.25 C12.7505,12.8355 13.0865,12.5 13.5005,12.5 L28.4995,12.5 C28.9135,12.5 29.2495,12.8355 29.2495,13.25 C29.2495,13.664 28.9135,14 28.4995,14 L13.5005,14 Z M13.5005,24 C13.0865,24 12.7505,23.664 12.7505,23.25 C12.7505,22.8355 13.0865,22.5 13.5005,22.5 L28.4995,22.5 C28.9135,22.5 29.2495,22.8355 29.2495,23.25 C29.2495,23.664 28.9135,24 28.4995,24 L13.5005,24 Z M23.9995,28 C24.4135,28 24.7495,28.336 24.7495,28.75 L24.7495,34.75 C24.7495,35.164 24.4135,35.5 23.9995,35.5 C23.5855,35.5 23.2495,35.164 23.2495,34.75 L23.2495,28.75 C23.2495,28.3355 23.5855,28 23.9995,28 Z M28.9995,29.5 C29.4135,29.5 29.7495,29.836 29.7495,30.25 L29.7495,34.75 C29.7495,35.164 29.4135,35.5 28.9995,35.5 C28.5855,35.5 28.2495,35.164 28.2495,34.75 L28.2495,30.25 C28.2495,29.8355 28.5855,29.5 28.9995,29.5 Z M26.4995,31 C26.9135,31 27.2495,31.336 27.2495,31.75 L27.2495,34.75 C27.2495,35.164 26.9135,35.5 26.4995,35.5 C26.0855,35.5 25.7495,35.164 25.7495,34.75 L25.7495,31.75 C25.7495,31.3355 26.0855,31 26.4995,31 Z M16.2495,27 C18.735,27.0005 20.749,29.014 20.7495,31.5 C20.749,33.986 18.735,35.9995 16.2495,36 C13.764,35.9995 11.75,33.986 11.7495,31.5 C11.75,29.014 13.764,27.0005 16.2495,27 Z M13.2495,31.5 C13.25,32.331 13.584,33.076 14.128,33.621 C14.6675,34.16 15.404,34.4915 16.2255,34.4985 L15.5215,31.6815 C15.458,31.4265 15.533,31.156 15.719,30.9695 C15.905,30.783 16.176,30.708 16.431,30.772 L19.2485,31.4765 C19.2415,30.655 18.9095,29.9185 18.3705,29.3785 C17.8255,28.8345 17.08,28.5005 16.2495,28.5 C15.419,28.5005 14.6735,28.8345 14.1285,29.3785 C13.584,29.924 13.25,30.669 13.2495,31.5 Z M17.681,34.137 C17.935,33.999 18.167,33.8245 18.3705,33.6215 C18.5735,33.418 18.7475,33.186 18.886,32.9325 L17.2795,32.531 L17.681,34.137 Z" id="Combined-Shape"></path>
                            </g>
                        </g>
                    </g>
                </g>
            </g>
        </g>
    </g>
</svg>