<?xml version="1.0" encoding="UTF-8"?>
<svg width="80px" height="80px" viewBox="0 0 80 80" version="1.1" xmlns="http://www.w3.org/2000/svg" xmlns:xlink="http://www.w3.org/1999/xlink">
    <!-- Generator: Sketch 54.1 (76490) - https://sketchapp.com -->
    <title>Setup a Meeting</title>
    <desc>Created with Sketch.</desc>
    <g id="Page-2" stroke="none" stroke-width="1" fill="none" fill-rule="evenodd">
        <g id="Homepage_l" transform="translate(-553.000000, -2527.000000)" fill-rule="nonzero">
            <g id="Group-36" transform="translate(488.000000, 2527.000000)">
                <g id="Group-4">
                    <g id="Group-33">
                        <g id="Setup-a-Meeting" transform="translate(65.000000, 0.000000)">
                            <circle id="Oval" fill="#6F92EC" cx="40" cy="40" r="40"></circle>
                            <g id="noun_Meeting_72587_000000" transform="translate(20.000000, 18.000000)" fill="#FFFFFF">
                                <path d="M40.2921944,15.2948611 C40.9915417,14.2156806 41.4137778,12.9143333 41.4137778,11.765875 C41.4137778,9.24141667 39.3605278,7.18756944 36.8354722,7.18756944 C34.3104167,7.18756944 32.2571667,9.24141667 32.2571667,11.765875 C32.2571667,12.8068333 32.6131111,13.9887361 33.2061528,15.0087917 C32.6137083,15.2990417 32.0720278,15.6585694 31.6181389,16.0688611 L31.0955694,13.7355139 C31.0041944,13.3264167 30.6404861,13.0355694 30.2212361,13.0355694 L28.1172222,13.0355694 C28.0503333,10.690875 26.6211806,8.68420833 24.5918194,7.78061111 C25.0946806,6.82445833 25.3909028,5.75423611 25.3909028,4.80286111 C25.3909028,2.27840278 23.3376528,0.224555556 20.8125972,0.224555556 C18.2875417,0.224555556 16.2342917,2.27840278 16.2342917,4.80286111 C16.2342917,5.83904167 16.5788889,7.00004167 17.1599861,8.01054167 C15.3796667,8.99834722 14.1619306,10.8742222 14.0998194,13.0361667 L12.3684722,13.0361667 C11.9492222,13.0361667 11.5855139,13.3270139 11.4941389,13.7361111 L11.0366667,15.7786111 C10.6622083,15.4871667 10.2417639,15.2285694 9.79325,15.0087917 C10.3862917,13.9887361 10.7416389,12.8068333 10.7416389,11.765875 C10.7416389,9.24141667 8.68838889,7.18756944 6.16393056,7.18756944 C3.638875,7.18756944 1.585625,9.24141667 1.585625,11.765875 C1.585625,12.9149306 2.00726389,14.2162778 2.70661111,15.2948611 C1.16458333,16.3686667 0.151097222,18.1519722 0.151097222,20.1699861 L0.151097222,31.3870139 C0.151097222,31.8821111 0.552430556,32.2828472 1.04693056,32.2828472 L7.34284722,32.2828472 L7.02452778,33.7042361 C6.96480556,33.9694028 7.02990278,34.2477083 7.19951389,34.4597222 C7.36972222,34.6717361 7.627125,34.7953611 7.89886111,34.7953611 L12.8026528,34.7953611 C12.2096111,35.8924583 11.8715833,37.146625 11.8715833,38.4790278 L11.8715833,41.5188889 C11.8715833,42.0139861 12.2729167,42.4147222 12.7674167,42.4147222 C13.2619167,42.4147222 13.66325,42.0139861 13.66325,41.5188889 L13.66325,38.4790278 C13.66325,35.1829583 16.3441806,32.5020278 19.64025,32.5020278 L22.5761944,32.5020278 C25.8722639,32.5020278 28.5531944,35.1829583 28.5531944,38.4790278 L28.5531944,41.5188889 C28.5531944,42.0139861 28.9545278,42.4147222 29.4490278,42.4147222 C29.9435278,42.4147222 30.3448611,42.0139861 30.3448611,41.5188889 L30.3448611,38.4790278 C30.3448611,37.146625 30.0068333,35.8924583 29.4137917,34.7953611 L34.6908472,34.7953611 C34.9625833,34.7953611 35.2199861,34.6717361 35.3901944,34.4597222 C35.5598056,34.2477083 35.6249028,33.9694028 35.5651806,33.7042361 L35.2468611,32.2828472 L41.951875,32.2828472 C42.446375,32.2828472 42.8477083,31.8821111 42.8477083,31.3870139 L42.8477083,20.1699861 C42.8477083,18.1525694 41.8342222,16.3692639 40.2921944,15.2948611 Z M34.0488333,11.765875 C34.0488333,10.2292222 35.2988194,8.97923611 36.8354722,8.97923611 C38.372125,8.97923611 39.6221111,10.2292222 39.6221111,11.765875 C39.6221111,12.6187083 39.2434722,13.6829583 38.66775,14.4957778 C38.1111389,14.3225833 37.5204861,14.2294167 36.9077361,14.2294167 L36.4227917,14.2294167 C35.9294861,14.2294167 35.4290139,14.2915278 34.9357083,14.4008194 C34.3928333,13.5963611 34.0488333,12.5918333 34.0488333,11.765875 Z M18.0259583,4.80226389 C18.0259583,3.26561111 19.2759444,2.015625 20.8125972,2.015625 C22.34925,2.015625 23.5992361,3.26561111 23.5992361,4.80226389 C23.5992361,5.58044444 23.2940556,6.51927778 22.8037361,7.29865278 C22.6006806,7.27775 22.3946389,7.26640278 22.1856111,7.26640278 L20.0302361,7.26640278 C19.6342778,7.26640278 19.2484722,7.30701389 18.8740139,7.38106944 C18.3580139,6.59034722 18.0259583,5.60194444 18.0259583,4.80226389 Z M20.0302361,9.05806944 L22.1856111,9.05806944 C24.4156389,9.05806944 26.2347778,10.8276389 26.3255556,13.0355694 L15.8908889,13.0355694 C15.9816667,10.8270417 17.8002083,9.05806944 20.0302361,9.05806944 Z M3.37729167,11.765875 C3.37729167,10.2292222 4.62727778,8.97923611 6.16393056,8.97923611 C7.69998611,8.97923611 8.94997222,10.2292222 8.94997222,11.765875 C8.94997222,12.5912361 8.60597222,13.5963611 8.06309722,14.4014167 C7.56979167,14.292125 7.06931944,14.2294167 6.57601389,14.2294167 L6.09106944,14.2294167 C5.47831944,14.2294167 4.88766667,14.3225833 4.33105556,14.4957778 C3.75593056,13.6835556 3.37729167,12.6193056 3.37729167,11.765875 Z M1.94276389,30.4911806 L1.94276389,20.1699861 C1.94276389,17.882625 3.80370833,16.0216806 6.09106944,16.0216806 L6.57601389,16.0216806 C8.09594444,16.0216806 9.80041667,16.8147917 10.5768056,17.8336528 L7.74358333,30.4911806 L1.94276389,30.4911806 L1.94276389,30.4911806 Z M19.64025,30.7109583 C19.0495972,30.7109583 18.4762639,30.7832222 17.9232361,30.9086389 C17.1145972,29.7512222 16.5842639,28.2426389 16.5842639,27.0296806 C16.5842639,24.75725 18.4332639,22.90825 20.7050972,22.90825 C22.978125,22.90825 24.8265278,24.75725 24.8265278,27.0296806 C24.8265278,28.208 24.3421806,29.63775 23.57475,30.7832222 C23.246875,30.7408194 22.9148194,30.7115556 22.5755972,30.7115556 L19.64025,30.7115556 L19.64025,30.7109583 Z M28.0807917,33.0042917 C27.3241111,32.2434306 26.4085694,31.6444167 25.3920972,31.2472639 C26.1589306,29.9148611 26.6181944,28.3805972 26.6181944,27.0290833 C26.6181944,23.7688472 23.9659306,21.1159861 20.7050972,21.1159861 C17.4448611,21.1159861 14.7925972,23.76825 14.7925972,27.0290833 C14.7925972,28.4886944 15.3175556,30.137625 16.1877083,31.5303472 C15.4256528,31.9107778 14.7304861,32.405875 14.1356528,33.0036944 L9.01745833,33.0036944 L13.0857361,14.8260417 L29.503375,14.8260417 L33.5716528,33.0036944 L28.0807917,33.0042917 L28.0807917,33.0042917 Z M41.0560417,30.4911806 L34.8455278,30.4911806 L32.1072639,18.2564861 C32.1550417,18.2063194 32.1992361,18.1519722 32.2356667,18.0898611 C32.8985833,16.9491667 34.7768472,16.0216806 36.4233889,16.0216806 L36.9083333,16.0216806 C39.1956944,16.0216806 41.0566389,17.882625 41.0566389,20.1699861 L41.0560417,30.4911806 L41.0560417,30.4911806 Z" id="Shape"></path>
                            </g>
                        </g>
                    </g>
                </g>
            </g>
        </g>
    </g>
</svg>