<?xml version="1.0" encoding="UTF-8"?>
<svg width="88px" height="14px" viewBox="0 0 88 14" version="1.1" xmlns="http://www.w3.org/2000/svg" xmlns:xlink="http://www.w3.org/1999/xlink">
    <!-- Generator: Sketch 54.1 (76490) - https://sketchapp.com -->
    <title>Stars</title>
    <desc>Created with Sketch.</desc>
    <g id="Page-2" stroke="none" stroke-width="1" fill="none" fill-rule="evenodd">
        <g id="Homepage_l" transform="translate(-306.000000, -4032.000000)" fill="#F09C29">
            <g id="Group-5" transform="translate(216.000000, 3905.000000)">
                <g id="Stars" transform="translate(90.000000, 127.000000)">
                    <path d="M3.691,13.912 L4.549,8.911 L0.915,5.368 L5.937,4.638 L8.183,0.088 L10.429,4.638 L15.452,5.368 L11.817,8.911 L12.675,13.912 L8.183,11.551 L3.691,13.912 Z M26.092,0.088 L28.338,4.638 L33.36,5.368 L29.726,8.911 L30.584,13.912 L26.092,11.551 L21.6,13.912 L22.458,8.911 L18.823,5.368 L23.846,4.638 L26.092,0.088 Z M44,0.088 L46.246,4.638 L51.268,5.368 L47.634,8.911 L48.492,13.912 L44,11.551 L39.508,13.912 L40.366,8.911 L36.732,5.368 L41.754,4.638 L44,0.088 Z M79.817,0.088 L82.063,4.638 L87.085,5.368 L83.451,8.911 L84.309,13.912 L79.817,11.551 L75.325,13.912 L76.183,8.911 L72.548,5.368 L77.571,4.638 L79.817,0.088 Z M64.154,4.638 L69.177,5.368 L65.542,8.911 L66.4,13.912 L61.908,11.551 L57.416,13.912 L58.274,8.911 L54.64,5.368 L59.662,4.638 L61.908,0.088 L64.154,4.638 Z" id="Combined-Shape"></path>
                </g>
            </g>
        </g>
    </g>
</svg>