<?xml version="1.0" encoding="UTF-8"?>
<svg width="100px" height="100px" viewBox="0 0 100 100" version="1.1" xmlns="http://www.w3.org/2000/svg" xmlns:xlink="http://www.w3.org/1999/xlink">
    <!-- Generator: Sketch 54.1 (76490) - https://sketchapp.com -->
    <title>Female</title>
    <desc>Created with Sketch.</desc>
    <defs>
        <rect id="path-1" x="0" y="0" width="100" height="100" rx="50"></rect>
    </defs>
    <g id="Page-2" stroke="none" stroke-width="1" fill="none" fill-rule="evenodd">
        <g id="Our-Team_lg" transform="translate(-208.000000, -1157.000000)">
            <g id="Female" transform="translate(208.000000, 1157.000000)">
                <g id="Bitmap">
                    <mask id="mask-2" fill="white">
                        <use xlink:href="#path-1"></use>
                    </mask>
                    <use id="Mask" fill="#905BB4" fill-rule="nonzero" xlink:href="#path-1"></use>
                    <g id="noun_Woman_1392264_000000" mask="url(#mask-2)" fill="#FFFFFF" fill-rule="nonzero">
                        <g transform="translate(26.000000, 22.000000)" id="Shape">
                            <path d="M0,56.064 L0,52.749 C0,49.167 1.137,46.026 3.174,43.671 C5.19,41.343 8.073,39.795 11.598,39.366 L16.275,38.796 L16.725,36.129 C16.428,35.877 16.14,35.613 15.864,35.337 C13.983,33.456 12.594,30.999 12.411,28.284 C10.722,27.438 9.495,25.998 8.76,24.15 C7.962,22.14 7.755,19.644 8.19,16.92 C8.661,13.965 10.626,10.734 13.737,8.403 C14.121,8.115 14.526,7.839 14.946,7.581 C14.754,7.245 14.604,6.882 14.505,6.498 C14.286,5.661 14.313,4.731 14.694,3.831 C15.06,2.961 15.75,2.136 16.863,1.473 C18.333,0.597 20.574,3.33066907e-16 23.838,3.33066907e-16 C27.102,3.33066907e-16 29.343,0.597 30.813,1.47 C31.926,2.136 32.616,2.961 32.982,3.831 C33.363,4.731 33.39,5.661 33.171,6.498 C33.072,6.882 32.922,7.245 32.727,7.581 C33.15,7.839 33.552,8.115 33.939,8.403 C37.05,10.734 39.015,13.965 39.486,16.92 C39.918,19.644 39.714,22.14 38.916,24.15 C38.181,25.998 36.954,27.438 35.262,28.284 C35.082,30.993 33.69,33.447 31.809,35.328 C31.539,35.598 31.257,35.856 30.969,36.102 L31.404,38.796 L36.078,39.366 C39.603,39.795 42.486,41.343 44.502,43.671 C46.539,46.026 47.676,49.167 47.676,52.749 L47.676,56.064 L45.831,56.064 L45.831,52.749 C45.831,49.617 44.856,46.893 43.113,44.874 C41.394,42.888 38.91,41.568 35.856,41.196 L31.401,40.653 C31.077,42.018 30.15,43.461 28.938,44.61 C27.498,45.966 25.629,46.95 23.838,46.95 C22.068,46.95 20.22,45.99 18.792,44.655 L18.738,44.61 C17.526,43.461 16.599,42.018 16.275,40.653 L11.82,41.196 C8.766,41.568 6.282,42.888 4.563,44.874 C2.817,46.893 1.845,49.617 1.845,52.749 L1.845,56.064 L0,56.064 Z M16.563,6.702 C18.672,5.709 21.117,5.103 23.838,5.103 C26.556,5.103 29.004,5.709 31.113,6.705 C31.233,6.501 31.332,6.276 31.392,6.039 C31.515,5.565 31.5,5.043 31.29,4.545 C31.068,4.014 30.618,3.492 29.877,3.051 C28.668,2.334 26.739,1.845 23.838,1.845 C20.937,1.845 19.008,2.334 17.799,3.054 C17.055,3.492 16.608,4.014 16.386,4.545 C16.176,5.043 16.161,5.565 16.284,6.039 C16.344,6.276 16.44,6.501 16.563,6.702 L16.563,6.702 Z M17.991,39.687 C18.021,40.806 18.84,42.174 19.998,43.272 L20.046,43.317 C21.162,44.358 22.557,45.108 23.838,45.108 C25.137,45.108 26.553,44.337 27.675,43.275 C28.839,42.171 29.661,40.794 29.685,39.675 L29.304,37.326 C27.492,38.466 25.53,39.129 23.838,39.129 C22.143,39.129 20.19,38.472 18.387,37.344 L17.991,39.687 L17.991,39.687 Z M18.888,12.153 C18.81,11.652 19.152,11.181 19.653,11.1 C20.154,11.022 20.625,11.364 20.703,11.865 C20.901,13.107 21.471,14.358 22.332,15.525 C22.353,15.552 22.377,15.582 22.395,15.612 C23.19,16.668 24.219,17.655 25.419,18.507 C27.873,20.241 31.029,21.387 34.362,21.387 C34.869,21.387 35.283,21.798 35.283,22.308 L35.283,26.115 C36.129,25.464 36.774,24.564 37.209,23.472 C37.884,21.768 38.052,19.605 37.671,17.208 C37.269,14.694 35.556,11.91 32.838,9.873 C30.513,8.133 27.453,6.948 23.838,6.948 C20.223,6.948 17.163,8.133 14.838,9.873 C12.117,11.91 10.407,14.694 10.005,17.208 C9.624,19.605 9.789,21.768 10.467,23.472 C10.899,24.564 11.544,25.464 12.393,26.115 L12.393,18.204 C12.393,17.697 12.804,17.283 13.314,17.283 C14.574,17.283 16.029,17.058 17.397,16.713 C18.462,16.446 19.467,16.11 20.277,15.759 C19.563,14.601 19.083,13.377 18.888,12.153 Z M33.438,23.205 C30.051,23.013 26.877,21.789 24.36,20.01 C23.22,19.203 22.209,18.279 21.375,17.28 C20.403,17.736 19.155,18.171 17.844,18.501 C16.656,18.798 15.405,19.017 14.238,19.095 L14.238,27.684 C14.238,30.096 15.462,32.328 17.169,34.035 C19.161,36.027 21.765,37.284 23.838,37.284 C25.899,37.284 28.509,36.021 30.507,34.026 C32.211,32.319 33.438,30.09 33.438,27.684 L33.438,23.205 L33.438,23.205 Z"></path>
                        </g>
                    </g>
                </g>
            </g>
        </g>
    </g>
</svg>