<?xml version="1.0" encoding="UTF-8"?>
<svg width="100px" height="100px" viewBox="0 0 100 100" version="1.1" xmlns="http://www.w3.org/2000/svg" xmlns:xlink="http://www.w3.org/1999/xlink">
    <!-- Generator: Sketch 54.1 (76490) - https://sketchapp.com -->
    <title>Male</title>
    <desc>Created with Sketch.</desc>
    <defs>
        <rect id="path-1" x="0" y="0" width="100" height="100" rx="50"></rect>
    </defs>
    <g id="Page-2" stroke="none" stroke-width="1" fill="none" fill-rule="evenodd">
        <g id="Our-Team_lg" transform="translate(-208.000000, -1846.000000)">
            <g id="Male" transform="translate(208.000000, 1846.000000)">
                <g id="Bitmap">
                    <mask id="mask-2" fill="white">
                        <use xlink:href="#path-1"></use>
                    </mask>
                    <use id="Mask" fill="#6F92EC" fill-rule="nonzero" xlink:href="#path-1"></use>
                    <g id="noun_Woman_1392264_000000" mask="url(#mask-2)" fill="#FFFFFF" fill-rule="nonzero">
                        <g transform="translate(26.000000, 24.000000)" id="Shape">
                            <path d="M0,51.064 L0,47.749 C0,44.167 1.137,41.026 3.174,38.671 C5.19,36.343 8.073,34.795 11.598,34.366 L16.275,33.796 L16.725,31.129 C16.428,30.877 16.14,30.613 15.864,30.337 C13.983,28.456 12.594,25.999 12.411,23.284 C10.722,22.438 9.495,20.998 8.76,19.15 C7.962,17.14 7.755,14.644 8.19,11.92 C8.661,8.965 10.626,5.734 13.737,3.403 C14.121,3.115 14.526,2.839 14.946,2.581 C14.754,2.245 19.5,-9.09494702e-13 24,-9.09494702e-13 C28.5,-9.09494702e-13 32.922,2.245 32.727,2.581 C33.15,2.839 33.552,3.115 33.939,3.403 C37.05,5.734 39.015,8.965 39.486,11.92 C39.918,14.644 39.714,17.14 38.916,19.15 C38.181,20.998 36.954,22.438 35.262,23.284 C35.082,25.993 33.69,28.447 31.809,30.328 C31.539,30.598 31.257,30.856 30.969,31.102 L31.404,33.796 L36.078,34.366 C39.603,34.795 42.486,36.343 44.502,38.671 C46.539,41.026 47.676,44.167 47.676,47.749 L47.676,51.064 L45.831,51.064 L45.831,47.749 C45.831,44.617 44.856,41.893 43.113,39.874 C41.394,37.888 38.91,36.568 35.856,36.196 L31.401,35.653 C31.077,37.018 30.15,38.461 28.938,39.61 C27.498,40.966 25.629,41.95 23.838,41.95 C22.068,41.95 20.22,40.99 18.792,39.655 L18.738,39.61 C17.526,38.461 16.599,37.018 16.275,35.653 L11.82,36.196 C8.766,36.568 6.282,37.888 4.563,39.874 C2.817,41.893 1.845,44.617 1.845,47.749 L1.845,51.064 L0,51.064 Z M19.998,38.272 L20.046,38.317 C21.162,39.358 22.557,40.108 23.838,40.108 C25.137,40.108 26.553,39.337 27.675,38.275 C28.839,37.171 29.661,35.794 29.685,34.675 L29.304,32.326 C27.492,33.466 25.53,34.129 23.838,34.129 C22.143,34.129 20.19,33.472 18.387,32.344 L17.991,34.687 C18.021,35.806 18.84,37.174 19.998,38.272 Z M18.888,7.153 C18.81,6.652 19.152,6.181 19.653,6.1 C20.154,6.022 20.625,6.364 20.703,6.865 C20.901,8.107 21.471,9.358 22.332,10.525 C22.353,10.552 22.377,10.582 22.395,10.612 C23.19,11.668 24.219,12.655 25.419,13.507 C27.873,15.241 31.029,16.387 34.362,16.387 C34.869,16.387 35.283,16.798 35.283,17.308 L35.283,21.115 C36.129,20.464 36.774,19.564 37.209,18.472 C37.884,16.768 38.052,14.605 37.671,12.208 C37.269,9.694 35.556,6.91 32.838,4.873 C30.513,3.133 27.453,1.948 23.838,1.948 C20.223,1.948 17.163,3.133 14.838,4.873 C12.117,6.91 10.407,9.694 10.005,12.208 C9.624,14.605 9.789,16.768 10.467,18.472 C10.899,19.564 11.544,20.464 12.393,21.115 L12.393,13.204 C12.393,12.697 12.804,12.283 13.314,12.283 C14.574,12.283 16.029,12.058 17.397,11.713 C18.462,11.446 19.467,11.11 20.277,10.759 C19.563,9.601 19.083,8.377 18.888,7.153 Z M33.438,18.205 C30.051,18.013 26.877,16.789 24.36,15.01 C23.22,14.203 22.209,13.279 21.375,12.28 C20.403,12.736 19.155,13.171 17.844,13.501 C16.656,13.798 15.405,14.017 14.238,14.095 L14.238,22.684 C14.238,25.096 15.462,27.328 17.169,29.035 C19.161,31.027 21.765,32.284 23.838,32.284 C25.899,32.284 28.509,31.021 30.507,29.026 C32.211,27.319 33.438,25.09 33.438,22.684 L33.438,18.205 L33.438,18.205 Z"></path>
                        </g>
                    </g>
                </g>
            </g>
        </g>
    </g>
</svg>