<?xml version="1.0" encoding="UTF-8"?>
<svg width="24px" height="24px" viewBox="0 0 24 24" version="1.1" xmlns="http://www.w3.org/2000/svg" xmlns:xlink="http://www.w3.org/1999/xlink">
    <!-- Generator: Sketch 54.1 (76490) - https://sketchapp.com -->
    <title>call-icon</title>
    <desc>Created with Sketch.</desc>
    <g id="Page-2" stroke="none" stroke-width="1" fill="none" fill-rule="evenodd">
        <g id="Contact_lg" transform="translate(-774.000000, -677.000000)">
            <g id="Group-5" transform="translate(498.000000, 675.000000)">
                <g id="call-icon" transform="translate(274.000000, 0.000000)">
                    <rect id="Rectangle" x="0" y="0" width="28" height="28"></rect>
                    <path d="M14.9603343,18.8902806 C15.2798158,18.5721197 15.2798158,18.5721197 15.6634564,18.1902905 C16.0193975,17.8361119 16.2993633,17.557859 16.4779041,17.3809319 C17.39247,16.4744311 18.6211375,16.4743254 19.5374242,17.3822154 C20.3657024,18.2029894 21.2047138,19.0415665 22.0583823,19.9016015 C22.9850511,20.835433 22.9791053,22.0649081 22.049081,23.0034883 C21.8656886,23.1885456 21.5693539,23.4056912 21.1667343,23.6649186 C21.0773971,23.7224386 20.9835394,23.7814976 20.8856591,23.8418798 C20.6223089,24.0043405 20.3414268,24.1693948 20.0607115,24.3288732 C19.8922855,24.4245586 19.7608191,24.4974141 19.6973009,24.5317393 C18.6555913,25.1326419 16.9705139,25.2621681 15.8890333,24.8441547 C15.7804908,24.8110944 15.5874987,24.745527 15.3220289,24.6446696 C14.8856189,24.4788686 14.4009116,24.2722474 13.8798793,24.0219607 C12.3940923,23.3082376 10.9089523,22.3859763 9.52101362,21.2313066 C8.96355093,20.7675358 8.43209684,20.2738832 7.93043316,19.749426 C7.52574433,19.3263498 7.14112154,18.8855813 6.77604569,18.4289446 C5.57422773,16.9257113 4.6306719,15.3172109 3.91513428,13.7081188 C3.6642531,13.1439403 3.45953243,12.6191484 3.29734136,12.1467169 C3.19873719,11.8595019 3.13556501,11.6508491 3.11951187,11.5822141 C2.71045441,10.4557607 2.94122987,8.76822555 3.62186147,7.77236321 C3.66397688,7.70717771 3.73762321,7.59562272 3.83451503,7.45291897 C3.99595281,7.21515094 4.1637669,6.97721151 4.33011873,6.7538438 C4.40236336,6.65683783 4.47296474,6.56446221 4.54161877,6.47735143 C4.71828172,6.25319492 4.8788896,6.06763679 5.02386931,5.92499166 C5.93988584,5.02411201 7.16616536,5.02537615 8.08375132,5.92641742 C8.4477711,6.28364976 10.0192305,7.8562012 10.5878631,8.42972998 C11.5327561,9.38348791 11.5349206,10.597918 10.5910307,11.5464815 C10.4531812,11.6850617 10.1537885,11.9850484 9.74078606,12.3985232 C9.39004229,12.7496266 9.39004229,12.7496266 9.09859356,13.0412851 C8.98508195,13.1548666 8.92683246,13.2131517 8.89021684,13.2497887 C8.94949514,13.3964815 9.03789367,13.6029269 9.15314,13.8524407 C9.40806335,14.404362 9.69979857,14.9559676 10.0218609,15.467678 C10.3759126,16.030215 10.7445284,16.5080085 11.1192935,16.8733885 C11.4639913,17.209454 11.8757547,17.5351975 12.3403571,17.8471059 C12.8833566,18.2116458 13.4684499,18.5380881 14.0537993,18.8204158 C14.3332615,18.955207 14.5616471,19.0560791 14.7258965,19.1238 C14.7656264,19.0842233 14.8294724,19.0206283 14.9603343,18.8902806 Z M21.2303099,20.7234332 C20.3789195,19.8656933 19.5421783,19.0293851 18.7162506,18.2109403 C18.2547688,17.7536875 17.7590608,17.7537302 17.2991544,18.2095808 C17.1212949,18.3858327 16.8417682,18.6636492 16.488461,19.0152069 C16.1029633,19.3988842 16.1029633,19.3988842 15.7836195,19.7169078 C15.5281975,19.9713261 15.5281975,19.9713261 15.4643505,20.0349438 C15.1916664,20.3065999 14.7393581,20.3931401 14.4009017,20.2503943 C14.2249857,20.1821718 13.9270024,20.0545403 13.5469629,19.8712383 C12.9151538,19.566502 12.2830883,19.2138524 11.690073,18.8157347 C11.1702811,18.4667751 10.7041111,18.097991 10.3048617,17.7087399 C9.85679086,17.2718901 9.43391857,16.7237701 9.03447985,16.0891198 C8.68313004,15.5308757 8.36856374,14.9361017 8.09399316,14.3416432 C7.92892632,13.9842656 7.81297091,13.7041978 7.75470026,13.5497793 C7.61557153,13.2026007 7.72078311,12.7694959 7.98199348,12.5081382 C8.04025653,12.4498497 8.04025653,12.4498497 8.27335829,12.2166048 C8.56473601,11.9250173 8.56473601,11.9250173 8.91437058,11.5750242 C9.32771056,11.1612115 9.62684589,10.8614826 9.76396668,10.7236351 C10.2546728,10.2304993 10.2538168,9.75022322 9.75921946,9.25098558 C9.19428585,8.6811877 7.62576271,7.11157458 7.26646257,6.75897383 C6.80230549,6.30318583 6.30367803,6.30267181 5.84201513,6.75670585 C5.73781994,6.85922322 5.60681543,7.01057915 5.45791682,7.19950722 C5.39615666,7.2778708 5.33195803,7.361869 5.26580727,7.45069247 C5.11068149,7.6589865 4.95230694,7.88354181 4.79972386,8.10826851 C4.70820316,8.2430616 4.63936234,8.3473375 4.59347866,8.41799886 C4.11393121,9.11988772 3.93683189,10.4149186 4.23136315,11.2324788 C4.25586824,11.3241613 4.31122704,11.5070071 4.40079112,11.7678901 C4.55221381,12.2089554 4.7445732,12.7020597 4.98115293,13.2340773 C5.6583607,14.7569737 6.55204785,16.2804619 7.68728655,17.7004178 C8.03111744,18.1304814 8.39305081,18.5452483 8.77350816,18.9429921 C9.24398031,19.4348406 9.7430527,19.8984148 10.2671531,20.3344303 C11.5763648,21.4236047 12.9810288,22.2958909 14.385046,22.9703345 C14.8754451,23.205906 15.3299241,23.3996415 15.7363736,23.5540598 C15.9766194,23.6453341 16.1448529,23.7024899 16.2685984,23.7417553 C17.0614424,24.047022 18.3781823,23.9458086 19.1271808,23.5139682 C19.1975295,23.475718 19.3227802,23.4063072 19.4844189,23.3144779 C19.7538116,23.161432 20.0230374,23.0032272 20.2731214,22.8489505 C20.3648464,22.7923654 20.4523944,22.7372767 20.5351601,22.6839878 C20.8696583,22.4686205 21.1142027,22.2894266 21.2203669,22.1823039 C21.7014537,21.6967827 21.7038491,21.2006325 21.2303099,20.7234332 Z" id="Shape" fill="#FFFFFF" fill-rule="nonzero"></path>
                    <path d="M25.0833333,14 C25.0833333,14.3221661 24.8221661,14.5833333 24.5,14.5833333 C24.1778339,14.5833333 23.9166667,14.3221661 23.9166667,14 C23.9166667,8.52317624 19.4768238,4.08333333 14,4.08333333 C13.6778339,4.08333333 13.4166667,3.8221661 13.4166667,3.5 C13.4166667,3.1778339 13.6778339,2.91666667 14,2.91666667 C20.1211559,2.91666667 25.0833333,7.87884403 25.0833333,14 Z" id="Path" fill="#FFFFFF" fill-rule="nonzero"></path>
                    <path d="M21.5833333,14 C21.5833333,14.3221661 21.3221661,14.5833333 21,14.5833333 C20.6778339,14.5833333 20.4166667,14.3221661 20.4166667,14 C20.4166667,10.4561729 17.5438271,7.58333333 14,7.58333333 C13.6778339,7.58333333 13.4166667,7.3221661 13.4166667,7 C13.4166667,6.6778339 13.6778339,6.41666667 14,6.41666667 C18.1881594,6.41666667 21.5833333,9.81184065 21.5833333,14 Z" id="Path" fill="#FFFFFF" fill-rule="nonzero"></path>
                </g>
            </g>
        </g>
    </g>
</svg>