<?xml version="1.0" encoding="UTF-8"?>
<svg width="25px" height="18px" viewBox="0 0 25 18" version="1.1" xmlns="http://www.w3.org/2000/svg" xmlns:xlink="http://www.w3.org/1999/xlink">
    <!-- Generator: Sketch 54.1 (76490) - https://sketchapp.com -->
    <title>email-icon</title>
    <desc>Created with Sketch.</desc>
    <g id="Page-2" stroke="none" stroke-width="1" fill="none" fill-rule="evenodd">
        <g id="Contact_lg" transform="translate(-498.000000, -681.000000)" fill="#FFFFFF" fill-rule="nonzero">
            <g id="Group-5" transform="translate(498.000000, 675.000000)">
                <g id="email-icon" transform="translate(0.000000, 6.000000)">
                    <path d="M2.38095238,0.3 C1.07219643,0.3 1.48809523e-07,1.38078 1.48809523e-07,2.7 L1.48809523e-07,15.3 C1.48809523e-07,16.619226 1.07219643,17.700006 2.38095238,17.700006 L22.6190476,17.700006 C23.9278033,17.700006 25,16.619226 25.0000001,15.3 L25,2.7 C25,1.38078 23.9278033,0.3 22.6190476,0.3 L2.38095238,0.3 L2.38095238,0.3 Z M2.38095238,1.5 L22.6190476,1.5 C22.7197884,1.5 22.8146366,1.515 22.9073661,1.5375 L12.9743304,11.221896 C12.7552679,11.435526 12.2447324,11.435526 12.0256696,11.221896 L2.09263393,1.5375 C2.18536339,1.515 2.28021131,1.5 2.38095238,1.5 Z M1.23697917,2.39064 L8.1938244,9.168756 L1.32068452,15.834366 C1.24206577,15.672906 1.19047619,15.495936 1.19047619,15.300006 L1.19047619,2.7 C1.19047619,2.59104 1.21139881,2.49021 1.23697917,2.39064 L1.23697917,2.39064 Z M23.7630208,2.39064 C23.7885863,2.49021 23.8095238,2.59104 23.8095238,2.7 L23.8095238,15.300006 C23.8095238,15.495936 23.7579345,15.672906 23.6793155,15.834366 L16.8061756,9.168756 L23.7630208,2.39064 Z M9.04947917,10.003146 L11.1886161,12.084396 C11.9146845,12.792516 13.0853158,12.792516 13.8113839,12.084396 L15.9505208,10.003146 L22.6469494,16.500006 C22.6374851,16.500216 22.6285863,16.500006 22.6190625,16.500006 L2.38096726,16.500006 C2.37144345,16.500006 2.36254464,16.500216 2.35308036,16.500006 L9.04950893,10.003146 L9.04947917,10.003146 Z" id="Shape"></path>
                </g>
            </g>
        </g>
    </g>
</svg>