<?xml version="1.0" encoding="UTF-8"?>
<svg width="27px" height="27px" viewBox="0 0 27 27" version="1.1" xmlns="http://www.w3.org/2000/svg" xmlns:xlink="http://www.w3.org/1999/xlink">
    <!-- Generator: Sketch 54.1 (76490) - https://sketchapp.com -->
    <title>ig</title>
    <desc>Created with Sketch.</desc>
    <g id="Page-2" stroke="none" stroke-width="1" fill="none" fill-rule="evenodd">
        <g id="Homepage_l" transform="translate(-1206.000000, -4817.000000)">
            <g id="ig" transform="translate(1206.682927, 4818.000000)">
                <ellipse id="base" stroke="#FFFFFF" cx="12.4878049" cy="12.5" rx="12.4878049" ry="12.5"></ellipse>
                <path d="M16.0892878,8.125 L8.88632195,8.125 C8.46673171,8.125 8.11707317,8.475 8.11707317,8.895 L8.11707317,11.03875 L11.0279805,11.03875 C11.4650537,10.72375 11.9283512,10.4525 12.4878049,10.4525 C13.0297756,10.4525 13.5192976,10.72375 13.9476293,11.03875 L16.8585366,11.03875 L16.8585366,8.895 C16.8585366,8.475 16.508878,8.125 16.0892878,8.125 L16.0892878,8.125 Z M16.2728585,10.155 C16.2728585,10.32125 16.1417366,10.46125 15.9756488,10.46125 L14.8305171,10.46125 C14.6644293,10.46125 14.5245659,10.32125 14.5245659,10.155 L14.5245659,9.00875 C14.5245659,8.8425 14.6644293,8.71125 14.8305171,8.71125 L15.9756488,8.71125 C16.1417366,8.71125 16.2728585,8.8425 16.2728585,9.00875 L16.2728585,10.155 Z M13.9476293,12.78875 C13.9476293,11.98375 13.2920195,11.33625 12.4878049,11.33625 C11.6835902,11.33625 11.0279805,11.98375 11.0279805,12.78875 C11.0279805,13.59375 11.6835902,14.25 12.4878049,14.25 C13.2920195,14.25 13.9476293,13.59375 13.9476293,12.78875 L13.9476293,12.78875 Z M14.716878,12.21125 C14.7693268,12.38625 14.7868098,12.57 14.7868098,12.75375 C14.7868098,14.03125 13.7553171,15.06375 12.4878049,15.06375 C11.2202927,15.06375 10.1888,14.03125 10.1888,12.75375 C10.1888,12.57 10.2062829,12.38625 10.2587317,12.21125 L8.11707317,12.21125 L8.11707317,16.105 C8.11707317,16.525 8.46673171,16.875 8.88632195,16.875 L16.0892878,16.875 C16.508878,16.875 16.8585366,16.525 16.8585366,16.105 L16.8585366,12.21125 L14.716878,12.21125 Z" id="icon" fill="#FFFFFF"></path>
            </g>
        </g>
    </g>
</svg>