<?xml version="1.0" encoding="UTF-8"?>
<svg width="135px" height="35px" viewBox="0 0 135 35" version="1.1" xmlns="http://www.w3.org/2000/svg" xmlns:xlink="http://www.w3.org/1999/xlink">
    <!-- Generator: Sketch 54.1 (76490) - https://sketchapp.com -->
    <title>KeyLobby_nz</title>
    <desc>Created with Sketch.</desc>
    <g id="Page-2" stroke="none" stroke-width="1" fill="none" fill-rule="evenodd">
        <g id="Homepage_l" transform="translate(-210.000000, -19.000000)">
            <g id="KeyLobby_nz" transform="translate(210.000000, 19.000000)">
                <g id="Group-2-Copy-4">
                    <g id="Group-Copy-7">
                        <path d="M49.2584854,14.7989641 L47.0094881,17.1223268 L47.0094881,20.3571624 L45.252459,20.3571624 L45.252459,7.84674827 L47.0094881,7.84674827 L47.0094881,14.8347082 L53.6861988,7.84674827 L55.689212,7.84674827 L50.4356949,13.4764346 L56.0230475,20.3571624 L53.9673235,20.3571624 L49.2584854,14.7989641 Z M61.4346972,18.9631448 C62.5474879,18.9631448 63.4435638,18.5818789 64.1229518,17.8193355 L65.0366069,18.9274008 C64.6266314,19.4278199 64.108313,19.8090858 63.4816362,20.0712101 C62.8549593,20.3333344 62.155083,20.4643945 61.3819864,20.4643945 C60.3980451,20.4643945 59.5253961,20.2588684 58.764013,19.8478098 C58.0026299,19.4367513 57.414031,18.8618737 56.9981987,18.1231599 C56.5823664,17.384446 56.3744534,16.5504268 56.3744534,15.6210771 C56.3744534,14.7036421 56.5765097,13.8755801 56.9806284,13.1368662 C57.3847471,12.3981524 57.9411341,11.8232748 58.6498061,11.4122163 C59.358478,11.0011578 60.1579183,10.7956316 61.0481508,10.7956316 C61.891529,10.7956316 62.6587574,10.9892432 63.349859,11.3764723 C64.0409606,11.7637013 64.5914908,12.3087925 65.0014664,13.0117621 C65.4114419,13.7147318 65.6222833,14.5249219 65.6339968,15.4423569 L58.2369042,16.9078625 C58.471176,17.5631732 58.8665036,18.069542 59.4228989,18.4269842 C59.9792942,18.7844264 60.649887,18.9631448 61.4346972,18.9631448 Z M61.0481508,12.2432652 C60.4624715,12.2432652 59.9382964,12.3802827 59.4756098,12.6543217 C59.0129231,12.9283607 58.6527357,13.3126053 58.3950369,13.807067 C58.137338,14.3015287 58.0084904,14.8764063 58.0084904,15.531717 L58.0084904,15.7104372 L63.9648192,14.5666279 C63.8125426,13.875573 63.4728537,13.3155886 62.9457423,12.886658 C62.4186309,12.4577273 61.7861068,12.2432652 61.0481508,12.2432652 Z M76.6681397,10.8849917 L76.6681397,19.070377 C76.6681397,20.7265258 76.2874539,21.9507469 75.5260708,22.7430771 C74.7646877,23.5354073 73.6226302,23.9315665 72.099864,23.9315665 C71.2681994,23.9315665 70.4746158,23.8094422 69.7190895,23.56519 C68.9635632,23.3209379 68.3456809,22.972437 67.8654238,22.5196769 L68.6912275,21.1971474 C69.101203,21.578419 69.5960946,21.8762831 70.1759171,22.0907484 C70.7557396,22.3052137 71.3677653,22.4124447 72.0120126,22.4124447 C73.0310945,22.4124447 73.7807528,22.153303 74.2610098,21.6350119 C74.7412669,21.1167207 74.9813918,20.3214237 74.9813918,19.2490972 L74.9813918,18.5520884 C74.6416978,19.0048485 74.2024449,19.3533494 73.6636199,19.5976016 C73.124795,19.8418537 72.5391245,19.963978 71.9065908,19.963978 C70.6649507,19.963978 69.6868809,19.6184557 68.9723522,18.9274008 C68.2578234,18.2363459 67.9005644,17.2116936 67.9005644,15.8534133 L67.9005644,10.8849917 L69.5873124,10.8849917 L69.5873124,15.6568211 C69.5873124,16.5623413 69.8040105,17.2504072 70.2374131,17.7210394 C70.6708158,18.1916717 71.2916266,18.4269842 72.099864,18.4269842 C72.9900965,18.4269842 73.6929012,18.1529493 74.208299,17.6048713 C74.7236967,17.0567933 74.9813918,16.2823468 74.9813918,15.2815087 L74.9813918,10.8849917 L76.6681397,10.8849917 Z M80.1294871,7.84674827 L81.8865162,7.84674827 L81.8865162,18.8022967 L88.5456566,18.8022967 L88.5456566,20.3571624 L80.1294871,20.3571624 L80.1294871,7.84674827 Z M94.1857201,20.4643945 C93.2603468,20.4643945 92.4286946,20.2558897 91.6907387,19.8388738 C90.9527828,19.4218579 90.3758973,18.8469804 89.960065,18.1142239 C89.5442327,17.3814674 89.3363197,16.5504268 89.3363197,15.6210771 C89.3363197,14.6917274 89.5442327,13.8606867 89.960065,13.1279302 C90.3758973,12.3951737 90.9527828,11.8232748 91.6907387,11.4122163 C92.4286946,11.0011578 93.2603468,10.7956316 94.1857201,10.7956316 C95.1110934,10.7956316 95.9398172,11.0011578 96.6719163,11.4122163 C97.4040154,11.8232748 97.9779725,12.3951737 98.3938048,13.1279302 C98.8096371,13.8606867 99.0175502,14.6917274 99.0175502,15.6210771 C99.0175502,16.5504268 98.8096371,17.3814674 98.3938048,18.1142239 C97.9779725,18.8469804 97.4040154,19.4218579 96.6719163,19.8388738 C95.9398172,20.2558897 95.1110934,20.4643945 94.1857201,20.4643945 Z M94.1857201,18.9631448 C94.783113,18.9631448 95.3190015,18.8231487 95.7934017,18.5431524 C96.267802,18.263156 96.6397027,17.8699755 96.9091152,17.363599 C97.1785277,16.8572226 97.3132319,16.2763877 97.3132319,15.6210771 C97.3132319,14.9657664 97.1785277,14.3849315 96.9091152,13.8785551 C96.6397027,13.3721786 96.267802,12.9819768 95.7934017,12.7079378 C95.3190015,12.4338988 94.783113,12.2968813 94.1857201,12.2968813 C93.5883272,12.2968813 93.0524387,12.4338988 92.5780384,12.7079378 C92.1036382,12.9819768 91.7288091,13.3721786 91.4535398,13.8785551 C91.1782705,14.3849315 91.040638,14.9657664 91.040638,15.6210771 C91.040638,16.2763877 91.1782705,16.8572226 91.4535398,17.363599 C91.7288091,17.8699755 92.1036382,18.263156 92.5780384,18.5431524 C93.0524387,18.8231487 93.5883272,18.9631448 94.1857201,18.9631448 Z M106.291651,10.7956316 C107.193597,10.7956316 108.001822,10.9981791 108.716351,11.4032803 C109.43088,11.8083814 109.990195,12.3743231 110.394314,13.1011222 C110.798432,13.8279213 111.000489,14.6678979 111.000489,15.6210771 C111.000489,16.5742562 110.798432,17.4172114 110.394314,18.1499679 C109.990195,18.8827244 109.43088,19.4516447 108.716351,19.8567458 C108.001822,20.261847 107.193597,20.4643945 106.291651,20.4643945 C105.600549,20.4643945 104.968025,20.3273771 104.394059,20.0533381 C103.820094,19.7792991 103.3457,19.3801613 102.970866,18.8559127 L102.970866,20.3571624 L101.354399,20.3571624 L101.354399,7.09612342 L103.041147,7.09612342 L103.041147,12.3147533 C103.415982,11.8143343 103.884518,11.4360469 104.44677,11.17988 C105.009022,10.9237131 105.623976,10.7956316 106.291651,10.7956316 Z M106.151088,18.9631448 C106.748481,18.9631448 107.28437,18.8231487 107.75877,18.5431524 C108.23317,18.263156 108.607999,17.8699755 108.883269,17.363599 C109.158538,16.8572226 109.296171,16.2763877 109.296171,15.6210771 C109.296171,14.9657664 109.158538,14.3849315 108.883269,13.8785551 C108.607999,13.3721786 108.23317,12.9819768 107.75877,12.7079378 C107.28437,12.4338988 106.748481,12.2968813 106.151088,12.2968813 C105.565409,12.2968813 105.032449,12.4338988 104.552192,12.7079378 C104.071935,12.9819768 103.697106,13.3721786 103.427693,13.8785551 C103.158281,14.3849315 103.023577,14.9657664 103.023577,15.6210771 C103.023577,16.2763877 103.158281,16.8572226 103.427693,17.363599 C103.697106,17.8699755 104.071935,18.263156 104.552192,18.5431524 C105.032449,18.8231487 105.565409,18.9631448 106.151088,18.9631448 Z M118.274589,10.7956316 C119.176535,10.7956316 119.984761,10.9981791 120.69929,11.4032803 C121.413818,11.8083814 121.973134,12.3743231 122.377252,13.1011222 C122.781371,13.8279213 122.983427,14.6678979 122.983427,15.6210771 C122.983427,16.5742562 122.781371,17.4172114 122.377252,18.1499679 C121.973134,18.8827244 121.413818,19.4516447 120.69929,19.8567458 C119.984761,20.261847 119.176535,20.4643945 118.274589,20.4643945 C117.583488,20.4643945 116.950964,20.3273771 116.376998,20.0533381 C115.803032,19.7792991 115.328639,19.3801613 114.953804,18.8559127 L114.953804,20.3571624 L113.337338,20.3571624 L113.337338,7.09612342 L115.024085,7.09612342 L115.024085,12.3147533 C115.39892,11.8143343 115.867457,11.4360469 116.429709,11.17988 C116.991961,10.9237131 117.606915,10.7956316 118.274589,10.7956316 Z M118.134027,18.9631448 C118.73142,18.9631448 119.267308,18.8231487 119.741709,18.5431524 C120.216109,18.263156 120.590938,17.8699755 120.866207,17.363599 C121.141477,16.8572226 121.279109,16.2763877 121.279109,15.6210771 C121.279109,14.9657664 121.141477,14.3849315 120.866207,13.8785551 C120.590938,13.3721786 120.216109,12.9819768 119.741709,12.7079378 C119.267308,12.4338988 118.73142,12.2968813 118.134027,12.2968813 C117.548348,12.2968813 117.015388,12.4338988 116.535131,12.7079378 C116.054873,12.9819768 115.680044,13.3721786 115.410632,13.8785551 C115.141219,14.3849315 115.006515,14.9657664 115.006515,15.6210771 C115.006515,16.2763877 115.141219,16.8572226 115.410632,17.363599 C115.680044,17.8699755 116.054873,18.263156 116.535131,18.5431524 C117.015388,18.8231487 117.548348,18.9631448 118.134027,18.9631448 Z M134,10.8849917 L134,19.070377 C134,20.7265258 133.619314,21.9507469 132.857931,22.7430771 C132.096548,23.5354073 130.95449,23.9315665 129.431724,23.9315665 C128.60006,23.9315665 127.806476,23.8094422 127.05095,23.56519 C126.295424,23.3209379 125.677541,22.972437 125.197284,22.5196769 L126.023088,21.1971474 C126.433063,21.578419 126.927955,21.8762831 127.507777,22.0907484 C128.0876,22.3052137 128.699626,22.4124447 129.343873,22.4124447 C130.362955,22.4124447 131.112613,22.153303 131.59287,21.6350119 C132.073127,21.1167207 132.313252,20.3214237 132.313252,19.2490972 L132.313252,18.5520884 C131.973558,19.0048485 131.534305,19.3533494 130.99548,19.5976016 C130.456655,19.8418537 129.870985,19.963978 129.238451,19.963978 C127.996811,19.963978 127.018741,19.6184557 126.304212,18.9274008 C125.589684,18.2363459 125.232425,17.2116936 125.232425,15.8534133 L125.232425,10.8849917 L126.919173,10.8849917 L126.919173,15.6568211 C126.919173,16.5623413 127.135871,17.2504072 127.569273,17.7210394 C128.002676,18.1916717 128.623487,18.4269842 129.431724,18.4269842 C130.321957,18.4269842 131.024761,18.1529493 131.540159,17.6048713 C132.055557,17.0567933 132.313252,16.2823468 132.313252,15.2815087 L132.313252,10.8849917 L134,10.8849917 Z" id="KeyLobby" fill="#2C2C2C"></path>
                        <text id="New-Zealand" font-family="Helvetica" font-size="8" font-weight="normal" letter-spacing="1.142857" fill="#484848">
                            <tspan x="76.1459271" y="33">New Zealand</tspan>
                        </text>
                        <g id="Group">
                            <path d="M5.5,-4.156675e-13 L29.647541,-4.156675e-13 C32.6851071,-4.18923393e-13 35.147541,2.46243388 35.147541,5.5 L35.147541,28.7045455 C35.147541,31.7421116 32.6851071,34.2045455 29.647541,34.2045455 L5.5,34.2045455 C2.46243388,34.2045455 -6.53532085e-14,31.7421116 -6.57252031e-14,28.7045455 L-6.39488462e-14,5.5 C-6.43208408e-14,2.46243388 2.46243388,-4.15109509e-13 5.5,-4.156675e-13 Z" id="Rectangle" fill="#009AFF"></path>
                            <g id="icon-copy-2" transform="translate(17.573770, 17.500000) rotate(-330.000000) translate(-17.573770, -17.500000) translate(6.590164, 6.562500)" fill="#FFFFFF">
                                <g id="Group-7" transform="translate(-0.000000, 0.000000)">
                                    <path d="M16.8221815,16.7382501 L15.1308492,14.6896682 C15.1285565,14.6923914 15.1262609,14.6951124 15.1239627,14.6978309 L13.6864835,12.9575897 C13.6885633,12.9543151 13.6906371,12.9510362 13.6927046,12.9477531 L13.6864724,12.9402045 L13.7060627,12.9263429 C13.9894537,12.4678565 14.1529324,11.9278971 14.1529324,11.3498841 C14.1529324,9.68753541 12.8007647,8.3399355 11.1327812,8.3399355 C9.46479775,8.3399355 8.11262998,9.68753541 8.11262998,11.3498841 C8.11262998,13.0122329 9.46479775,14.3598328 11.1327812,14.3598328 C11.1716369,14.3598328 11.2103211,14.3591015 11.2488209,14.357652 L12.0428764,16.4700394 C12.0408554,16.4703938 12.038834,16.470747 12.0368123,16.471099 L12.98882,19.0079265 C12.991262,19.0072766 12.9937036,19.0066256 12.9961448,19.0059735 L13.769759,21.063982 C12.8456725,21.331084 11.8687239,21.4742568 10.858222,21.4742568 C5.09609731,21.4742568 0.424972308,16.8189117 0.424972308,11.0762524 C0.424972308,5.33359319 5.09609731,0.678248046 10.858222,0.678248046 C16.6203467,0.678248046 21.2914717,5.33359319 21.2914717,11.0762524 C21.2914717,13.9558819 20.1169295,16.5621091 18.2192528,18.4450513 L16.8153182,16.7454199 C16.8176074,16.7430313 16.8198952,16.7406414 16.8221815,16.7382501 Z M18.1299129,14.9353548 C18.7458572,13.7849644 19.0949981,12.4712438 19.0949981,11.0762524 C19.0949981,6.54257409 15.4072678,2.8673016 10.858222,2.8673016 C6.30917619,2.8673016 2.62144593,6.54257409 2.62144593,11.0762524 C2.62144593,15.6099308 6.30917619,19.2852033 10.858222,19.2852033 C10.8756254,19.2852033 10.8930163,19.2851495 10.9103944,19.2850421 L9.836339,16.3870675 C7.58246017,15.8126009 5.91615636,13.7751782 5.91615636,11.3498841 C5.91615636,8.47855451 8.25171886,6.15088194 11.1327812,6.15088194 C14.0138436,6.15088194 16.3494061,8.47855451 16.3494061,11.3498841 C16.3494061,11.8214675 16.2864058,12.2783861 16.1683357,12.7127363 L18.1299129,14.9353548 Z" id="Combined-Shape"></path>
                                </g>
                            </g>
                        </g>
                    </g>
                </g>
            </g>
        </g>
    </g>
</svg>