<?xml version="1.0" encoding="UTF-8"?>
<svg width="123px" height="111px" viewBox="0 0 123 111" version="1.1" xmlns="http://www.w3.org/2000/svg" xmlns:xlink="http://www.w3.org/1999/xlink">
    <!-- Generator: Sketch 54.1 (76490) - https://sketchapp.com -->
    <title>Goal</title>
    <desc>Created with Sketch.</desc>
    <g id="Page-2" stroke="none" stroke-width="1" fill="none" fill-rule="evenodd">
        <g id="About-Page_lg" transform="translate(-268.000000, -1207.000000)" fill="#339D3D" fill-rule="nonzero">
            <g id="Goal" transform="translate(268.000000, 1207.000000)">
                <path d="M122.755884,108.5737 L75.6694369,33.7571156 C75.5124787,33.5185155 75.3117658,33.3113354 75.0777489,33.1463627 L75.0777489,1.54150841 C75.0531369,0.683149956 74.3453772,0 73.4807094,0 C72.6160416,0 71.908282,0.683149956 71.8836699,1.54150841 L71.8836699,3.1294659 L56.2822706,3.1294659 C54.3126754,3.13088317 52.7161589,4.71581729 52.714017,6.6718326 L52.714017,7.51788606 C52.7133066,7.72210922 52.546778,7.88748974 52.341137,7.88819518 L35.1433456,7.88819518 C34.4969852,7.88753045 33.9140066,8.27400183 33.6667358,8.86707746 C33.419465,9.46015308 33.5567054,10.1427788 34.0143481,10.5960806 L42.4688823,18.9936112 L34.0143481,27.3911419 C33.557633,27.8445652 33.4209829,28.5265928 33.6681358,29.1191043 C33.9152887,29.7116158 34.4975547,30.0978844 35.1433456,30.0977415 L52.341137,30.0977415 C54.3102267,30.0956155 55.9059553,28.5108886 55.908096,26.5553748 L55.908096,25.3377264 L71.8836699,25.3377264 L71.8836699,33.1450769 C71.6486943,33.3088341 71.4474187,33.515705 71.2906873,33.754544 L49.5199379,68.3488729 L39.7292507,52.7907469 C39.2292743,52.0806463 38.4117219,51.6576538 37.5392285,51.6576538 C36.6667352,51.6576538 35.8491827,52.0806463 35.3492064,52.7907469 L0.244115835,108.5737 C-0.0647815535,109.062398 -0.0816815644,109.679242 0.200000442,110.183897 C0.481682449,110.688553 1.0173885,111.001189 1.59839498,110.999997 L121.401605,110.999997 C121.982611,111.001189 122.518318,110.688553 122.8,110.183897 C123.081682,109.679242 123.064782,109.062398 122.755884,108.5737 L122.755884,108.5737 Z M52.7114275,26.5553748 C52.7107172,26.7595979 52.5441885,26.9249784 52.3385476,26.9256839 L39.0029117,26.9256839 L45.8649379,20.1109675 C46.1647461,19.8138033 46.3332255,19.4104157 46.3332255,18.9897538 C46.3332255,18.569092 46.1647461,18.1657044 45.8649379,17.8685401 L39.0029117,11.0538238 L52.3385476,11.0538238 C52.4630717,11.0542726 52.5875344,11.0482641 52.7114275,11.0358226 L52.7114275,26.5553748 L52.7114275,26.5553748 Z M55.9055065,22.1656688 L55.9055065,6.6718326 C55.9055059,6.57339733 55.9449691,6.47901237 56.0151779,6.40952886 C56.0853867,6.34004535 56.1805631,6.30118169 56.2796812,6.30152348 L71.8836699,6.30152125 L71.8836699,22.1669546 L55.9055065,22.1656688 Z M73.4800621,36.2631311 L87.425512,58.4225313 L81.4697911,64.3371908 L74.6077649,57.5224745 C73.9839985,56.9038168 72.9735362,56.9038168 72.3497698,57.5224745 L65.4877436,64.3371908 L59.5320227,58.4225313 L73.4800621,36.2631311 Z M37.5398759,55.299334 L47.4911087,71.1146191 L43.5292595,75.0491534 L38.6688734,70.222277 C38.045107,69.6036193 37.0346448,69.6036193 36.4108784,70.222277 L31.5491975,75.0491534 L27.5873484,71.1159049 L37.5398759,55.299334 Z M4.480446,107.827939 L25.8498315,73.8739363 L30.4266736,78.4127945 C31.0510282,79.030039 32.060314,79.030039 32.6846686,78.4127945 L37.5463495,73.5846323 L42.4067356,78.4127945 C42.5669588,78.568537 42.758418,78.6890169 42.968645,78.7663883 L36.1907756,89.5374975 C35.8557503,90.0175304 35.8133694,90.6415417 36.0804508,91.161906 C36.3475322,91.6822702 36.880887,92.0148408 37.4688648,92.0276442 C38.0568427,92.0404476 38.6043633,91.7314136 38.894155,91.2231755 L50.8755118,72.1869725 L57.7970953,61.1882775 L64.3639249,67.7098325 C64.9876913,68.3284902 65.9981536,68.3284902 66.62192,67.7098325 L73.4839462,60.8951162 L80.3459725,67.7098325 C80.9697389,68.3284902 81.9802011,68.3284902 82.6039675,67.7098325 L89.1707972,61.1882775 L118.519554,107.827939 L4.480446,107.827939 Z" id="Shape"></path>
                <path d="M83.6227496,94.0085999 L81.1011028,90.9664229 C81.0976844,90.9704671 81.094262,90.9745077 81.0908355,90.9785447 L78.9476641,88.3942587 C78.950765,88.3893959 78.9538568,88.3845268 78.9569393,88.3796513 L78.9476476,88.3684416 L78.9768552,88.3478568 C79.3993694,87.6669971 79.6431038,86.8651488 79.6431038,86.0067904 C79.6431038,83.538176 77.6271253,81.5369686 75.1402897,81.5369686 C72.6534542,81.5369686 70.6374757,83.538176 70.6374757,86.0067904 C70.6374757,88.4754048 72.6534542,90.4766122 75.1402897,90.4766122 C75.1982205,90.4766122 75.2558958,90.4755262 75.3132961,90.4733736 L76.4971719,93.6103027 C76.4941588,93.6108289 76.4911451,93.6113534 76.4881307,93.6118762 L77.9075013,97.3791055 C77.9111422,97.3781404 77.9147825,97.3771736 77.918422,97.3762053 L79.0718215,100.432381 C77.6940794,100.829031 76.2375238,101.041645 74.730943,101.041645 C66.1400566,101.041645 59.1757672,94.1283836 59.1757672,85.600443 C59.1757672,77.0725023 66.1400566,70.1592405 74.730943,70.1592405 C83.3218294,70.1592405 90.2861188,77.0725023 90.2861188,85.600443 C90.2861188,89.8767387 88.5349664,93.7470277 85.7056759,96.5432269 L83.612517,94.0192471 C83.61593,94.0157 83.6193409,94.012151 83.6227496,94.0085998 Z M85.5724769,91.3312715 C86.4908026,89.6229235 87.0113449,87.6720274 87.0113449,85.600443 C87.0113449,78.8678582 81.5132217,73.41002 74.730943,73.41002 C67.9486643,73.41002 62.4505411,78.8678582 62.4505411,85.600443 C62.4505411,92.3330277 67.9486643,97.790866 74.730943,97.790866 C74.7568902,97.790866 74.7828186,97.7907861 74.808728,97.7906266 L73.2073938,93.487088 C69.8470331,92.6339959 67.3627019,89.6083907 67.3627019,86.0067904 C67.3627019,81.7428201 70.8448466,78.2861892 75.1402897,78.2861892 C79.4357329,78.2861892 82.9178776,81.7428201 82.9178776,86.0067904 C82.9178776,86.7070992 82.8239491,87.3856306 82.6479155,88.0306476 L85.5724769,91.3312715 Z" id="Combined-Shape" transform="translate(74.730943, 85.600443) rotate(-330.000000) translate(-74.730943, -85.600443) "></path>
            </g>
        </g>
    </g>
</svg>