<?xml version="1.0" encoding="UTF-8"?>
<svg width="121px" height="121px" viewBox="0 0 121 121" version="1.1" xmlns="http://www.w3.org/2000/svg" xmlns:xlink="http://www.w3.org/1999/xlink">
    <!-- Generator: Sketch 54.1 (76490) - https://sketchapp.com -->
    <title>Map</title>
    <desc>Created with Sketch.</desc>
    <g id="Page-2" stroke="none" stroke-width="1" fill="none" fill-rule="evenodd">
        <g id="About-Page_lg" transform="translate(-269.000000, -577.000000)" fill="#905BB4" fill-rule="nonzero">
            <g id="Map" transform="translate(269.000000, 577.000000)">
                <path d="M119.048387,31.3076923 L117.096774,31.3076923 L117.096774,25.458194 C117.096774,22.2331706 114.469903,19.6086957 111.241935,19.6086957 C108.013968,19.6086957 105.387097,22.2331706 105.387097,25.458194 L105.387097,31.3076923 L103.435484,31.3076923 C102.356242,31.3076923 101.483871,32.1812174 101.483871,33.2575251 L101.483871,35.2073579 L91.7258065,35.2073579 L91.7258065,39.1070234 L101.483871,39.1070234 L101.483871,52.7558528 L95.6290323,52.7558528 C95.1099032,52.7558528 94.6141935,52.9605853 94.2492419,53.3271538 L86.4427903,61.1264849 C86.0758871,61.4911037 85.8709677,61.988311 85.8709677,62.5050167 L85.8709677,70.3043478 C85.8709677,70.8230033 86.0758871,71.3182609 86.4427903,71.6828796 L93.6774194,78.9109097 L93.6774194,85.90301 C93.6774194,86.4216656 93.8823387,86.9169231 94.2492419,87.2815418 L98.1524677,91.1812074 C98.5174194,91.5477759 99.013129,91.7525084 99.5322581,91.7525084 L101.483871,91.7525084 L101.483871,99.5518395 L85.8709677,99.5518395 L85.8709677,97.6020067 C85.8709677,97.0833512 85.6660484,96.5880936 85.2991452,96.2234749 L81.3959194,92.3238094 C81.0309677,91.9572408 80.5352581,91.7525084 80.016129,91.7525084 L73.0176452,91.7525084 L65.7830161,84.5244783 C65.4180645,84.1579097 64.9223548,83.9531773 64.4032258,83.9531773 L52.6935484,83.9531773 C52.1744194,83.9531773 51.6787097,84.1579097 51.3137581,84.5244783 L43.5073065,92.3238094 C43.1404032,92.6884281 42.9354839,93.1836856 42.9354839,93.7023411 L42.9354839,99.5518395 L35.1290323,99.5518395 L35.1290323,96.4594047 L38.4604355,93.1310401 C38.8273387,92.7664214 39.0322581,92.2711639 39.0322581,91.7525084 L39.0322581,87.8528428 C39.0322581,87.3341873 38.8273387,86.8389298 38.4604355,86.474311 L35.1290323,83.1459465 L35.1290323,80.0535117 C35.1290323,79.5348562 34.9241129,79.0395987 34.5572097,78.6749799 L30.6539839,74.7753144 C30.2890323,74.4087458 29.7933226,74.2040134 29.2741935,74.2040134 L19.516129,74.2040134 L19.516129,39.1070234 L64.4032258,39.1070234 L64.4032258,35.2073579 L19.516129,35.2073579 L19.516129,33.2575251 C19.516129,32.1812174 18.6437581,31.3076923 17.5645161,31.3076923 L15.6129032,31.3076923 L15.6129032,25.458194 C15.6129032,22.2331706 12.9860323,19.6086957 9.75806452,19.6086957 C6.53009677,19.6086957 3.90322581,22.2331706 3.90322581,25.458194 L3.90322581,31.3076923 L1.9516129,31.3076923 C0.872370968,31.3076923 0,32.1812174 0,33.2575251 L0,107.351171 C0,108.429428 0.872370968,109.301003 1.9516129,109.301003 L3.90322581,109.301003 L3.90322581,115.150502 C3.90322581,118.375525 6.53009677,121 9.75806452,121 C12.9860323,121 15.6129032,118.375525 15.6129032,115.150502 L15.6129032,109.301003 L17.5645161,109.301003 C18.6437581,109.301003 19.516129,108.429428 19.516129,107.351171 L19.516129,103.451505 L101.483871,103.451505 L101.483871,107.351171 C101.483871,108.429428 102.356242,109.301003 103.435484,109.301003 L105.387097,109.301003 L105.387097,115.150502 C105.387097,118.375525 108.013968,121 111.241935,121 C114.469903,121 117.096774,118.375525 117.096774,115.150502 L117.096774,109.301003 L119.048387,109.301003 C120.127629,109.301003 121,108.429428 121,107.351171 L121,33.2575251 C121,32.1812174 120.127629,31.3076923 119.048387,31.3076923 Z M7.80645161,25.458194 C7.80645161,24.3838361 8.68077419,23.5083612 9.75806452,23.5083612 C10.8353548,23.5083612 11.7096774,24.3838361 11.7096774,25.458194 L11.7096774,31.3076923 L7.80645161,31.3076923 L7.80645161,25.458194 Z M11.7096774,115.150502 C11.7096774,116.226809 10.8353548,117.100334 9.75806452,117.100334 C8.68077419,117.100334 7.80645161,116.226809 7.80645161,115.150502 L7.80645161,109.301003 L11.7096774,109.301003 L11.7096774,115.150502 Z M15.6129032,105.401338 L3.90322581,105.401338 L3.90322581,35.2073579 L15.6129032,35.2073579 L15.6129032,105.401338 Z M46.8387097,94.5095719 L53.5015161,87.8528428 L63.5952581,87.8528428 L70.8298871,95.0808729 C71.1948387,95.4474415 71.6905484,95.6521739 72.2096774,95.6521739 L79.2081613,95.6521739 L81.9677419,98.4092375 L81.9677419,99.5518395 L46.8387097,99.5518395 L46.8387097,94.5095719 Z M19.516129,78.1036789 L28.4662258,78.1036789 L31.2258065,80.8607425 L31.2258065,83.9531773 C31.2258065,84.4718328 31.4307258,84.9670903 31.797629,85.331709 L35.1290323,88.6600736 L35.1290323,90.9452776 L31.797629,94.2736421 C31.4307258,94.6382609 31.2258065,95.1335184 31.2258065,95.6521739 L31.2258065,99.5518395 L19.516129,99.5518395 L19.516129,78.1036789 Z M100.340226,87.8528428 L97.5806452,85.0957793 L97.5806452,78.1036789 C97.5806452,77.5850234 97.3757258,77.0897659 97.0088226,76.7251472 L89.7741935,69.4971171 L89.7741935,63.3122475 L96.437,56.6555184 L101.483871,56.6555184 L101.483871,87.8528428 L100.340226,87.8528428 Z M109.290323,25.458194 C109.290323,24.3838361 110.164645,23.5083612 111.241935,23.5083612 C112.319226,23.5083612 113.193548,24.3838361 113.193548,25.458194 L113.193548,31.3076923 L109.290323,31.3076923 L109.290323,25.458194 Z M113.193548,115.150502 C113.193548,116.226809 112.319226,117.100334 111.241935,117.100334 C110.164645,117.100334 109.290323,116.226809 109.290323,115.150502 L109.290323,109.301003 L113.193548,109.301003 L113.193548,115.150502 Z M117.096774,105.401338 L105.387097,105.401338 L105.387097,35.2073579 L117.096774,35.2073579 L117.096774,105.401338 Z" id="Shape"></path>
                <path d="M50.9221968,43.0434783 L43.0686499,43.0434783 C42.546389,43.0434783 42.0476888,43.2479348 41.6805355,43.6140093 L36.3656476,48.8850932 L29.3249428,48.8850932 C28.8026819,48.8850932 28.3039817,49.0895497 27.9368284,49.4556242 L24.0100549,53.3500342 C23.6409382,53.7141615 23.4347826,54.2106988 23.4347826,54.7267081 L23.4347826,64.4627329 C23.4347826,65.5395373 24.3124165,66.4099379 25.3981693,66.4099379 L38.3290343,66.4099379 L41.6805355,69.7338168 C42.0476888,70.0998913 42.546389,70.3043478 43.0686499,70.3043478 L50.9221968,70.3043478 C51.4444577,70.3043478 51.9431579,70.0998913 52.3103112,69.7338168 L60.1638581,61.9449969 C60.5329748,61.5808696 60.7391304,61.0843323 60.7391304,60.568323 L60.7391304,52.7795031 C60.7391304,52.2634938 60.5329748,51.7669565 60.1638581,51.4028292 L52.3103112,43.6140093 C51.9431579,43.2479348 51.4444577,43.0434783 50.9221968,43.0434783 Z M56.812357,59.7621801 L50.1093547,66.4099379 L43.881492,66.4099379 L40.5299908,63.086059 C40.1628375,62.7199845 39.6641373,62.515528 39.1418764,62.515528 L27.3615561,62.515528 L27.3615561,55.5328509 L30.1377849,52.7795031 L37.1784897,52.7795031 C37.7007506,52.7795031 38.1994508,52.5750466 38.5666041,52.208972 L43.881492,46.9378882 L50.1093547,46.9378882 L56.812357,53.585646 L56.812357,59.7621801 Z" id="Shape"></path>
                <path d="M76.4159239,53.3553634 C76.7248505,54.064146 77.4243071,54.5217391 78.1956522,54.5217391 C78.9669973,54.5217391 79.6664538,54.064146 79.9753804,53.3553634 L91.1064538,27.8586615 C92.8531522,23.8571553 93.7391304,19.6122484 93.7391304,15.2446677 C93.7391304,11.1730621 92.1575815,7.34485714 89.283981,4.46494099 C86.4123234,1.58502484 82.5944565,0 78.529837,0 L77.8614674,0 C73.7968478,0 69.977038,1.58502484 67.1073234,4.46494099 C64.2337228,7.34485714 62.6521739,11.1730621 62.6521739,15.2446677 C62.6521739,19.6141957 63.5381522,23.8571553 65.2848505,27.8586615 L76.4159239,53.3553634 Z M69.8546332,7.21828882 C71.9938043,5.07441615 74.8363179,3.89440994 77.8614674,3.89440994 L78.529837,3.89440994 C81.5549864,3.89440994 84.3994429,5.07441615 86.5366712,7.21828882 C88.6758424,9.36216149 89.8532609,12.2128696 89.8532609,15.2446677 C89.8532609,19.0728727 89.0780299,22.7920342 87.5450543,26.2970031 L78.1956522,47.7162578 L68.84625,26.2970031 C67.3132745,22.7920342 66.5380435,19.0728727 66.5380435,15.2446677 C66.5380435,12.2128696 67.715462,9.36216149 69.8546332,7.21828882 Z" id="Shape"></path>
                <path d="M83.0584666,21.9049048 L81.7381362,20.3056892 C81.7363463,20.3078152 81.7345544,20.3099392 81.7327602,20.3120614 L80.610599,18.9535505 C80.6122227,18.9509943 80.6138415,18.9484347 80.6154555,18.9458717 L80.6105904,18.9399789 L80.6258834,18.9291579 C80.8471112,18.5712427 80.9747302,18.149726 80.9747302,17.698503 C80.9747302,16.4007985 79.9191669,15.3488012 78.6170637,15.3488012 C77.3149605,15.3488012 76.2593973,16.4007985 76.2593973,17.698503 C76.2593973,18.9962075 77.3149605,20.0482049 78.6170637,20.0482049 C78.6473962,20.0482049 78.6775949,20.047634 78.7076496,20.0465024 L79.3275251,21.6955275 C79.3259474,21.6958041 79.3243695,21.6960798 79.3227912,21.6963546 L80.0659714,23.6767167 C80.0678778,23.6762094 80.0697838,23.6757012 80.0716895,23.6751921 L80.6756076,25.2817665 C79.954224,25.4902784 79.1915738,25.6020456 78.4027304,25.6020456 C73.9045556,25.6020456 70.2580645,21.9678729 70.2580645,17.4848938 C70.2580645,13.0019146 73.9045556,9.36774194 78.4027304,9.36774194 C82.9009052,9.36774194 86.5473963,13.0019146 86.5473963,17.4848938 C86.5473963,19.7328626 85.6304956,21.7674012 84.1490835,23.2373109 L83.0531087,21.9105019 C83.0548958,21.9086373 83.0566817,21.9067716 83.0584665,21.9049048 Z M84.0793407,20.4974833 C84.5601746,19.5994367 84.8327298,18.573887 84.8327298,17.4848938 C84.8327298,13.9456997 81.953921,11.076616 78.4027304,11.076616 C74.8515398,11.076616 71.972731,13.9456997 71.972731,17.4848938 C71.972731,21.0240878 74.8515398,23.8931715 78.4027304,23.8931715 C78.4163163,23.8931715 78.4298924,23.8931295 78.4434585,23.8930457 L77.6050024,21.6307558 C75.8455228,21.1823012 74.5447308,19.5917971 74.5447308,17.698503 C74.5447308,15.4570134 76.3679763,13.6399271 78.6170637,13.6399271 C80.8661511,13.6399271 82.6893967,15.4570134 82.6893967,17.698503 C82.6893967,18.0666423 82.6402158,18.4233336 82.5480449,18.762407 L84.0793407,20.4974833 Z" id="Combined-Shape" transform="translate(78.402730, 17.484894) rotate(-330.000000) translate(-78.402730, -17.484894) "></path>
            </g>
        </g>
    </g>
</svg>