<?xml version="1.0" encoding="UTF-8"?>
<svg width="118px" height="118px" viewBox="0 0 118 118" version="1.1" xmlns="http://www.w3.org/2000/svg" xmlns:xlink="http://www.w3.org/1999/xlink">
    <!-- Generator: Sketch 54.1 (76490) - https://sketchapp.com -->
    <title>Services</title>
    <desc>Created with Sketch.</desc>
    <g id="Page-2" stroke="none" stroke-width="1" fill="none" fill-rule="evenodd">
        <g id="About-Page_lg" transform="translate(-271.000000, -889.000000)" fill="#F09C29">
            <g id="Services" transform="translate(271.000000, 889.000000)">
                <path d="M118,71.7391304 L0,71.7391304 L0,56.4347826 L118,56.4347826 L118,71.7391304 Z M3.80645161,67.9130435 L114.193548,67.9130435 L114.193548,60.2608696 L3.80645161,60.2608696 L3.80645161,67.9130435 Z" id="Shape"></path>
                <path d="M48.5087512,105.926921 L45.5468477,102.351066 C45.5428326,102.355819 45.5388126,102.360569 45.5347879,102.365314 L43.0174383,99.3276754 C43.0210806,99.3219595 43.0247122,99.3162362 43.0283329,99.3105054 L43.0174189,99.2973292 L43.0517259,99.2731333 C43.5480073,98.4728327 43.8342954,97.5303189 43.8342954,96.5213816 C43.8342954,93.6197066 41.4663454,91.2674342 38.5453311,91.2674342 C35.6243167,91.2674342 33.2563667,93.6197066 33.2563667,96.5213816 C33.2563667,99.4230566 35.6243167,101.775329 38.5453311,101.775329 C38.6133761,101.775329 38.6811209,101.774052 38.7485427,101.771522 L40.1391125,105.458752 C40.1355733,105.459371 40.1320334,105.459987 40.1284928,105.460602 L41.7956725,109.888703 C41.7999491,109.887569 41.8042249,109.886432 41.8085,109.885294 L43.1632724,113.477604 C41.5449892,113.943838 39.8341322,114.19375 38.0645161,114.19375 C27.9737393,114.19375 19.7935484,106.067718 19.7935484,96.04375 C19.7935484,86.0197818 27.9737393,77.89375 38.0645161,77.89375 C48.155293,77.89375 56.3354839,86.0197818 56.3354839,96.04375 C56.3354839,101.070222 54.2785962,105.619462 50.9553373,108.906189 L48.496732,105.939436 C48.5007409,105.935267 48.5047473,105.931095 48.5087511,105.926921 Z M50.798883,102.779918 C51.87754,100.771881 52.4889643,98.4787454 52.4889643,96.04375 C52.4889643,88.1300909 46.0309189,81.7148026 38.0645161,81.7148026 C30.0981134,81.7148026 23.6400679,88.1300909 23.6400679,96.04375 C23.6400679,103.957409 30.0981134,110.372697 38.0645161,110.372697 C38.0949935,110.372697 38.1254487,110.372603 38.1558816,110.372416 L36.274969,105.313922 C32.3279201,104.311175 29.4098472,100.754798 29.4098472,96.5213816 C29.4098472,91.5093975 33.4999426,87.4463816 38.5453311,87.4463816 C43.5907195,87.4463816 47.6808149,91.5093975 47.6808149,96.5213816 C47.6808149,97.3445432 47.5704873,98.1421071 47.3637199,98.9002772 L50.798883,102.779918 Z" id="Combined-Shape" transform="translate(38.064516, 96.043750) rotate(-330.000000) translate(-38.064516, -96.043750) "></path>
                <rect id="Rectangle" x="3.83739837" y="69.826087" width="3.83739837" height="47.3478261"></rect>
                <rect id="Rectangle" x="110.325203" y="69.826087" width="3.83739837" height="47.3478261"></rect>
                <rect id="Rectangle" x="102.650407" y="75.5652174" width="3.83739837" height="3.82608696"></rect>
                <rect id="Rectangle" x="94.9756098" y="75.5652174" width="3.83739837" height="3.82608696"></rect>
                <rect id="Rectangle" x="87.300813" y="75.5652174" width="3.83739837" height="3.82608696"></rect>
                <path d="M93.1918191,18.2899215 L93.1918191,15.1809257 C93.1918191,8.90171529 88.0689372,3.79523142 81.769563,3.79523142 L77.9621443,3.79523142 C71.6627701,3.79523142 66.5398882,8.90171529 66.5398882,15.1809257 L66.5398882,18.2907873 C67.011747,17.8989979 67.3627297,17.3604382 67.5202985,16.7312777 L67.5793135,16.497871 C68.3312787,13.4901501 71.0364497,11.3856942 74.1547256,11.3856942 L85.5769817,11.3856942 C88.6952576,11.3856942 91.4004286,13.4901501 92.1542975,16.5054614 L92.2095051,16.7236872 C92.3680102,17.356581 92.7195732,17.8971207 93.1918191,18.2899215 Z M93.0957924,22.4730326 C90.8718625,21.7916504 89.104646,19.9972269 88.5182127,17.6516213 L88.4630051,17.4333955 C88.1298559,16.1031669 86.943845,15.1809257 85.5769817,15.1809257 L74.1547256,15.1809257 C72.7878623,15.1809257 71.6018514,16.1031669 71.2706059,17.425805 L71.211591,17.6592118 C70.6266411,19.9989023 68.8597667,21.7920088 66.6359239,22.4731066 C67.4306784,29.0465231 73.0604605,34.1570827 79.8658537,34.1570827 C86.6712724,34.1570827 92.3010712,29.0464847 93.0957924,22.4730326 Z M67.1533412,37.9523142 L66.5398882,37.9523142 C59.1915701,37.9523142 53.2139228,43.9108275 53.2139228,51.2356241 L53.2139228,58.826087 L49.4065041,58.826087 L49.4065041,51.2356241 C49.4065041,41.819655 57.0936824,34.1570827 66.5398882,34.1570827 L69.109147,34.1570827 C65.2222756,31.0233837 62.7324695,26.2325328 62.7324695,20.8737728 L62.7324695,15.1809257 C62.7324695,6.81054278 69.5648824,0 77.9621443,0 L81.769563,0 C90.1668249,0 96.9992378,6.81054278 96.9992378,15.1809257 L96.9992378,20.8737728 C96.9992378,26.2325328 94.5094318,31.0233837 90.6225603,34.1570827 L93.1918191,34.1570827 C102.638025,34.1570827 110.325203,41.819655 110.325203,51.2356241 L110.325203,58.826087 L106.517785,58.826087 L106.517785,51.2356241 C106.517785,43.9108275 100.540137,37.9523142 93.1918191,37.9523142 L92.5783661,37.9523142 L88.3773382,48.4195624 L81.1927391,43.6451613 L78.5389682,43.6451613 L71.3543692,48.4195624 L67.1533412,37.9523142 Z M71.2566283,37.9523142 L73.1476634,42.6659916 L74.9740821,41.4522766 L71.4628806,37.9523142 L71.2566283,37.9523142 Z M88.475079,37.9523142 L88.2688267,37.9523142 L84.7576252,41.4522766 L86.584044,42.6659916 L88.475079,37.9523142 Z M76.8465706,37.9523142 L78.75028,39.8499299 L80.9814273,39.8499299 L82.8851367,37.9523142 L76.8465706,37.9523142 Z M60.8287602,47.4403927 L64.6361789,47.4403927 L64.6361789,58.826087 L60.8287602,58.826087 L60.8287602,47.4403927 Z M95.0955285,47.4403927 L98.9029472,47.4403927 L98.9029472,58.826087 L95.0955285,58.826087 L95.0955285,47.4403927 Z" id="Combined-Shape"></path>
                <path d="M34.2414009,28.1642512 L34.2414009,43.2560386 L22.8398999,43.2560386 L22.8398999,28.1642512 L7.63789869,28.1642512 L7.63789869,58.3478261 L3.83739837,58.3478261 L3.83739837,24.3913043 L53.2439024,24.3913043 L53.2439024,58.3478261 L49.4434021,58.3478261 L49.4434021,28.1642512 L34.2414009,28.1642512 Z M30.4409006,28.1642512 L26.6404003,28.1642512 L26.6404003,39.4830918 L30.4409006,39.4830918 L30.4409006,28.1642512 Z" id="Combined-Shape"></path>
            </g>
        </g>
    </g>
</svg>